<svg xmlns="http://www.w3.org/2000/svg" xmlns:xlink="http://www.w3.org/1999/xlink" zoomAndPan="magnify" preserveAspectRatio="xMidYMid meet" version="1.0" viewBox="8.1 40.5 801.75 729"><defs><clipPath id="e286515db5"><path d="M 8.101562 40.5 L 809.851562 40.5 L 809.851562 769.5 L 8.101562 769.5 Z M 8.101562 40.5 " clip-rule="nonzero"/></clipPath></defs><g clip-path="url(#e286515db5)"><path fill="#100f0d" d="M 722.367188 544.738281 L 647.148438 544.738281 L 608.980469 475.707031 L 646.824219 407.464844 L 798.550781 407.464844 Z M 677.835938 616.636719 L 526.28125 616.636719 L 450.257812 479.359375 L 521.183594 479.359375 L 560.628906 550.625 L 560.945312 551.101562 L 561.269531 551.417969 L 561.738281 551.734375 L 562.0625 552.058594 L 562.695312 552.375 L 642.53125 552.375 Z M 601.824219 761.703125 L 450.257812 761.703125 L 526.28125 624.589844 L 677.835938 624.589844 Z M 458.527344 622.363281 L 458.84375 621.726562 L 458.84375 621.40625 C 458.9375 621.097656 458.984375 620.78125 459.003906 620.457031 C 458.984375 620.132812 458.9375 619.8125 458.84375 619.5 L 458.84375 619.183594 L 458.527344 618.542969 L 413.515625 537.421875 L 443.417969 483.5 L 519.277344 620.457031 L 443.417969 757.410156 L 413.515625 703.488281 Z M 372.328125 761.703125 L 220.601562 761.703125 L 296.625 624.589844 L 360.71875 624.589844 L 404.453125 703.644531 Z M 175.4375 552.691406 L 251.9375 552.691406 L 289.785156 620.613281 L 213.925781 757.570312 L 138.066406 620.613281 Z M 99.894531 544.738281 L 175.917969 407.464844 L 327.636719 407.464844 L 292.332031 471.40625 L 212.496094 471.40625 L 211.855469 471.730469 L 211.539062 472.046875 L 211.0625 472.363281 L 210.742188 472.679688 L 210.425781 473.160156 L 170.984375 544.421875 L 100.050781 544.421875 Z M 93.21875 266.535156 L 169.078125 403.488281 L 93.21875 540.445312 L 17.511719 403.488281 Z M 210.425781 336.679688 L 210.742188 337.160156 L 211.0625 337.476562 L 211.539062 337.792969 L 211.855469 338.269531 L 212.496094 338.585938 L 294.082031 338.585938 L 327.796875 399.355469 L 176.070312 399.355469 L 100.050781 262.398438 L 169.238281 262.398438 Z M 138.066406 189.542969 L 213.925781 52.589844 L 289.785156 189.542969 L 254 254.28125 L 173.847656 254.28125 Z M 372.328125 48.292969 L 410.335938 116.851562 L 372.328125 185.566406 L 296.625 185.566406 L 220.601562 48.453125 L 372.328125 48.453125 Z M 455.027344 52.589844 L 530.890625 189.542969 L 455.027344 326.503906 L 419.402344 262.082031 L 458.527344 191.453125 L 458.84375 190.816406 L 458.84375 190.5 C 458.9375 190.191406 458.984375 189.867188 459.003906 189.542969 C 458.984375 189.21875 458.9375 188.902344 458.84375 188.59375 L 458.84375 188.269531 L 458.527344 187.636719 L 419.402344 117.011719 Z M 689.449219 185.566406 L 537.882812 185.566406 L 461.867188 48.453125 L 613.589844 48.453125 Z M 564.125 254.445312 L 562.695312 254.445312 L 562.0625 254.761719 L 561.738281 255.078125 L 561.269531 255.402344 L 560.945312 255.71875 L 560.628906 256.195312 L 519.4375 330.632812 L 461.867188 330.632812 L 537.882812 193.519531 L 689.609375 193.519531 L 655.894531 254.28125 L 564.125 254.28125 Z M 604.363281 483.816406 L 638.078125 544.738281 L 570.808594 544.738281 Z M 570.648438 262.234375 L 651.28125 262.234375 L 613.425781 330.796875 L 608.65625 330.796875 Z M 563.96875 266.535156 L 599.59375 330.796875 L 528.503906 330.796875 Z M 488.109375 403.488281 L 523.894531 338.75 L 603.886719 338.75 L 639.832031 403.488281 L 602.292969 471.40625 L 525.800781 471.40625 Z M 381.394531 185.566406 L 414.792969 125.121094 L 448.1875 185.566406 Z M 448.351562 193.519531 L 414.953125 253.964844 L 381.554688 193.519531 L 448.507812 193.519531 Z M 259.730469 260.328125 L 296.625 193.519531 L 372.328125 193.519531 L 410.335938 262.082031 L 372.328125 330.632812 L 298.691406 330.632812 Z M 255.121094 268.597656 L 289.628906 330.957031 L 220.601562 330.957031 Z M 178.300781 262.398438 L 249.390625 262.398438 L 213.769531 326.65625 Z M 220.601562 479.359375 L 287.878906 479.359375 L 254.164062 540.128906 Z M 213.925781 483.660156 L 247.800781 544.738281 L 180.046875 544.738281 Z M 360.71875 616.636719 L 296.625 616.636719 L 258.773438 548.398438 L 296.941406 479.359375 L 372.167969 479.359375 L 404.292969 537.421875 Z M 448.351562 624.589844 L 409.0625 695.375 L 369.78125 624.589844 Z M 369.78125 616.636719 L 409.0625 545.695312 L 448.351562 616.636719 Z M 443.578125 471.40625 L 442.144531 471.40625 L 441.511719 471.730469 L 441.195312 472.046875 L 440.714844 472.363281 L 440.398438 472.679688 L 440.074219 473.160156 L 409.0625 529.3125 L 378.210938 473.476562 C 377.511719 472.195312 376.167969 471.40625 374.714844 471.40625 L 301.558594 471.40625 L 338.136719 405.394531 L 338.453125 404.761719 L 338.453125 404.445312 C 338.546875 404.132812 338.59375 403.8125 338.613281 403.488281 C 338.59375 403.164062 338.546875 402.847656 338.453125 402.535156 L 338.453125 402.214844 L 338.136719 401.578125 L 303.304688 338.75 L 374.871094 338.75 C 376.328125 338.753906 377.671875 337.960938 378.375 336.679688 L 415.109375 270.351562 L 451.53125 336.679688 L 451.847656 337.160156 L 452.164062 337.476562 L 452.644531 337.792969 L 452.960938 338.113281 L 453.59375 338.433594 L 514.824219 338.433594 L 479.996094 401.261719 C 479.34375 402.449219 479.34375 403.890625 479.996094 405.078125 L 516.574219 471.089844 L 443.417969 471.089844 Z M 530.253906 479.359375 L 598 479.359375 L 564.125 540.445312 Z M 722.367188 262.398438 L 798.390625 399.671875 L 646.824219 399.671875 L 613.109375 338.910156 L 615.8125 338.910156 C 617.273438 338.910156 618.613281 338.121094 619.316406 336.839844 L 660.503906 262.398438 L 722.53125 262.398438 Z M 809.042969 404.445312 C 809.136719 404.132812 809.195312 403.8125 809.207031 403.488281 C 809.195312 403.164062 809.136719 402.847656 809.042969 402.535156 L 809.042969 402.214844 L 808.726562 401.578125 L 728.257812 256.351562 C 727.554688 255.070312 726.214844 254.28125 724.753906 254.28125 L 664.960938 254.28125 L 699.785156 191.453125 L 700.101562 190.816406 L 700.101562 190.5 C 700.195312 190.191406 700.253906 189.867188 700.265625 189.542969 C 700.253906 189.21875 700.195312 188.902344 700.101562 188.59375 L 700.101562 188.269531 L 699.785156 187.636719 L 619.316406 42.570312 C 618.613281 41.289062 617.273438 40.492188 615.8125 40.5 L 453.59375 40.5 L 452.960938 40.816406 L 452.644531 41.132812 L 452.164062 41.457031 L 451.847656 41.773438 L 451.53125 42.253906 L 414.953125 108.738281 L 378.210938 42.570312 C 377.511719 41.289062 376.167969 40.492188 374.714844 40.5 L 212.496094 40.5 L 211.855469 40.816406 L 211.539062 41.132812 L 211.0625 41.457031 L 210.742188 41.773438 L 210.425781 42.253906 L 129.949219 187.636719 C 129.304688 188.824219 129.304688 190.265625 129.949219 191.453125 L 164.785156 254.28125 L 91.945312 254.28125 L 91.304688 254.605469 L 90.988281 254.921875 L 90.507812 255.238281 L 90.191406 255.554688 L 89.875 256.035156 L 9.40625 401.578125 C 8.753906 402.765625 8.753906 404.207031 9.40625 405.394531 L 89.875 550.625 L 90.191406 551.101562 L 90.507812 551.417969 L 90.988281 551.734375 L 91.304688 552.058594 L 91.945312 552.375 L 166.53125 552.375 L 129.949219 618.386719 C 129.304688 619.574219 129.304688 621.015625 129.949219 622.203125 L 210.425781 767.433594 L 210.742188 767.910156 L 211.0625 768.226562 L 211.539062 768.542969 L 211.855469 768.859375 L 212.496094 769.183594 L 374.714844 769.183594 C 376.167969 769.183594 377.511719 768.394531 378.210938 767.113281 L 409.0625 711.921875 L 439.921875 767.75 L 440.238281 768.226562 L 440.554688 768.542969 L 441.03125 768.859375 L 441.347656 769.183594 L 441.988281 769.5 L 604.207031 769.5 C 605.660156 769.507812 607.003906 768.710938 607.707031 767.433594 L 688.175781 622.203125 L 688.5 621.570312 L 688.5 621.40625 C 688.585938 621.097656 688.640625 620.78125 688.652344 620.457031 C 688.640625 620.132812 688.585938 619.8125 688.5 619.5 L 688.5 619.183594 L 688.175781 618.542969 L 651.597656 552.53125 L 724.753906 552.53125 C 726.214844 552.539062 727.554688 551.742188 728.257812 550.46875 L 808.726562 405.238281 L 809.042969 404.601562 L 809.042969 404.28125 L 809.042969 404.445312 " fill-opacity="1" fill-rule="nonzero"/></g></svg>