<svg xmlns="http://www.w3.org/2000/svg" xmlns:xlink="http://www.w3.org/1999/xlink" zoomAndPan="magnify" preserveAspectRatio="xMidYMid meet" version="1.0" viewBox="81 51.45 643.84 729"><defs><clipPath id="1417760a77"><path d="M 154.746094 171.335938 L 640.746094 171.335938 L 640.746094 657.335938 L 154.746094 657.335938 Z M 154.746094 171.335938 " clip-rule="nonzero"/></clipPath><clipPath id="a8deaf1b9b"><path d="M 81 51.449219 L 567 51.449219 L 567 537.449219 L 81 537.449219 Z M 81 51.449219 " clip-rule="nonzero"/></clipPath><clipPath id="7ec3b6da5e"><path d="M 118.207031 110.820312 L 604.207031 110.820312 L 604.207031 596.820312 L 118.207031 596.820312 Z M 118.207031 110.820312 " clip-rule="nonzero"/></clipPath><clipPath id="9e3ee3e13b"><path d="M 196.65625 231.582031 L 682.65625 231.582031 L 682.65625 717.582031 L 196.65625 717.582031 Z M 196.65625 231.582031 " clip-rule="nonzero"/></clipPath><clipPath id="f999db37e5"><path d="M 238.835938 294.449219 L 724.835938 294.449219 L 724.835938 780.449219 L 238.835938 780.449219 Z M 238.835938 294.449219 " clip-rule="nonzero"/></clipPath></defs><g clip-path="url(#1417760a77)"><path fill="#000000" d="M 397.746094 657.335938 C 263.496094 657.335938 154.746094 547.835938 154.746094 414.335938 C 154.746094 280.835938 263.496094 171.335938 397.746094 171.335938 C 531.996094 171.335938 640.746094 280.085938 640.746094 414.335938 C 640.746094 548.585938 531.246094 657.335938 397.746094 657.335938 Z M 397.746094 186.335938 C 271.746094 186.335938 169.746094 288.335938 169.746094 414.335938 C 169.746094 540.335938 271.746094 642.335938 397.746094 642.335938 C 523.746094 642.335938 625.746094 540.335938 625.746094 414.335938 C 625.746094 288.335938 522.996094 186.335938 397.746094 186.335938 Z M 397.746094 186.335938 " fill-opacity="1" fill-rule="nonzero"/></g><g clip-path="url(#a8deaf1b9b)"><path fill="#000000" d="M 324 537.449219 C 189.75 537.449219 81 427.949219 81 294.449219 C 81 160.949219 189.75 51.449219 324 51.449219 C 458.25 51.449219 567 160.199219 567 294.449219 C 567 428.699219 457.5 537.449219 324 537.449219 Z M 324 66.449219 C 198 66.449219 96 168.449219 96 294.449219 C 96 420.449219 198 522.449219 324 522.449219 C 450 522.449219 552 420.449219 552 294.449219 C 552 168.449219 449.25 66.449219 324 66.449219 Z M 324 66.449219 " fill-opacity="1" fill-rule="nonzero"/></g><g clip-path="url(#7ec3b6da5e)"><path fill="#000000" d="M 361.207031 596.820312 C 226.957031 596.820312 118.207031 487.320312 118.207031 353.820312 C 118.207031 220.320312 226.957031 110.820312 361.207031 110.820312 C 495.457031 110.820312 604.207031 219.570312 604.207031 353.820312 C 604.207031 488.070312 494.707031 596.820312 361.207031 596.820312 Z M 361.207031 125.820312 C 235.207031 125.820312 133.207031 227.820312 133.207031 353.820312 C 133.207031 479.820312 235.207031 581.820312 361.207031 581.820312 C 487.207031 581.820312 589.207031 479.820312 589.207031 353.820312 C 589.207031 227.820312 486.457031 125.820312 361.207031 125.820312 Z M 361.207031 125.820312 " fill-opacity="1" fill-rule="nonzero"/></g><g clip-path="url(#9e3ee3e13b)"><path fill="#000000" d="M 439.65625 717.582031 C 305.40625 717.582031 196.65625 608.082031 196.65625 474.582031 C 196.65625 341.082031 305.40625 231.582031 439.65625 231.582031 C 573.90625 231.582031 682.65625 340.332031 682.65625 474.582031 C 682.65625 608.832031 573.15625 717.582031 439.65625 717.582031 Z M 439.65625 246.582031 C 313.65625 246.582031 211.65625 348.582031 211.65625 474.582031 C 211.65625 600.582031 313.65625 702.582031 439.65625 702.582031 C 565.65625 702.582031 667.65625 600.582031 667.65625 474.582031 C 667.65625 348.582031 564.90625 246.582031 439.65625 246.582031 Z M 439.65625 246.582031 " fill-opacity="1" fill-rule="nonzero"/></g><g clip-path="url(#f999db37e5)"><path fill="#000000" d="M 481.835938 780.449219 C 347.585938 780.449219 238.835938 670.949219 238.835938 537.449219 C 238.835938 403.949219 347.585938 294.449219 481.835938 294.449219 C 616.085938 294.449219 724.835938 403.199219 724.835938 537.449219 C 724.835938 671.699219 615.335938 780.449219 481.835938 780.449219 Z M 481.835938 309.449219 C 355.835938 309.449219 253.835938 411.449219 253.835938 537.449219 C 253.835938 663.449219 355.835938 765.449219 481.835938 765.449219 C 607.835938 765.449219 709.835938 663.449219 709.835938 537.449219 C 709.835938 411.449219 607.085938 309.449219 481.835938 309.449219 Z M 481.835938 309.449219 " fill-opacity="1" fill-rule="nonzero"/></g></svg>