<svg xmlns="http://www.w3.org/2000/svg" xmlns:xlink="http://www.w3.org/1999/xlink" zoomAndPan="magnify" preserveAspectRatio="xMidYMid meet" version="1.0" viewBox="35.67 35.67 738.71 738.71"><path fill="#000000" d="M 405.035156 514.164062 C 403.445312 514.164062 401.855469 514.203125 400.265625 514.28125 C 398.679688 514.359375 397.09375 514.472656 395.511719 514.628906 C 393.929688 514.785156 392.351562 514.980469 390.777344 515.210938 C 389.207031 515.445312 387.640625 515.71875 386.082031 516.027344 C 384.519531 516.335938 382.96875 516.683594 381.429688 517.070312 C 379.886719 517.457031 378.355469 517.882812 376.832031 518.34375 C 375.3125 518.804688 373.800781 519.300781 372.304688 519.835938 C 370.808594 520.371094 369.324219 520.945312 367.855469 521.550781 C 366.386719 522.160156 364.933594 522.804688 363.496094 523.484375 C 362.058594 524.164062 360.640625 524.878906 359.238281 525.628906 C 357.835938 526.375 356.453125 527.160156 355.085938 527.976562 C 353.722656 528.792969 352.378906 529.644531 351.058594 530.527344 C 349.738281 531.410156 348.4375 532.324219 347.160156 533.273438 C 345.882812 534.21875 344.628906 535.195312 343.398438 536.207031 C 342.171875 537.214844 340.96875 538.25 339.789062 539.320312 C 338.609375 540.386719 337.460938 541.484375 336.335938 542.605469 C 335.210938 543.730469 334.113281 544.882812 333.046875 546.058594 C 331.980469 547.238281 330.941406 548.441406 329.933594 549.667969 C 328.921875 550.898438 327.945312 552.152344 327 553.429688 C 326.050781 554.707031 325.136719 556.003906 324.253906 557.328125 C 323.367188 558.648438 322.519531 559.992188 321.699219 561.355469 C 320.882812 562.71875 320.097656 564.101562 319.351562 565.503906 C 318.601562 566.90625 317.886719 568.324219 317.207031 569.761719 C 316.527344 571.199219 315.882812 572.652344 315.273438 574.121094 C 314.664062 575.589844 314.089844 577.070312 313.554688 578.570312 C 313.019531 580.066406 312.519531 581.574219 312.058594 583.097656 C 311.597656 584.617188 311.171875 586.148438 310.789062 587.691406 C 310.402344 589.234375 310.050781 590.785156 309.742188 592.34375 C 309.433594 593.902344 309.160156 595.46875 308.925781 597.042969 C 308.691406 598.613281 308.5 600.191406 308.34375 601.773438 C 308.1875 603.355469 308.070312 604.941406 307.992188 606.53125 C 307.914062 608.117188 307.875 609.707031 307.875 611.296875 C 307.871094 612.886719 307.910156 614.476562 307.988281 616.0625 C 308.066406 617.652344 308.183594 619.234375 308.339844 620.816406 C 308.496094 622.402344 308.691406 623.976562 308.921875 625.550781 C 309.15625 627.125 309.425781 628.6875 309.738281 630.25 C 310.046875 631.808594 310.394531 633.359375 310.78125 634.902344 C 311.167969 636.445312 311.59375 637.976562 312.054688 639.496094 C 312.515625 641.019531 313.011719 642.527344 313.546875 644.023438 C 314.082031 645.523438 314.65625 647.003906 315.265625 648.472656 C 315.871094 649.941406 316.515625 651.394531 317.195312 652.832031 C 317.875 654.269531 318.589844 655.691406 319.339844 657.09375 C 320.089844 658.496094 320.871094 659.878906 321.6875 661.242188 C 322.507812 662.605469 323.355469 663.949219 324.238281 665.269531 C 325.121094 666.59375 326.039062 667.890625 326.984375 669.167969 C 327.933594 670.445312 328.910156 671.699219 329.917969 672.929688 C 330.925781 674.15625 331.964844 675.359375 333.03125 676.539062 C 334.101562 677.714844 335.195312 678.867188 336.320312 679.992188 C 337.445312 681.117188 338.59375 682.210938 339.773438 683.28125 C 340.949219 684.347656 342.15625 685.386719 343.382812 686.394531 C 344.613281 687.402344 345.863281 688.382812 347.140625 689.328125 C 348.417969 690.277344 349.71875 691.191406 351.039062 692.074219 C 352.363281 692.957031 353.703125 693.808594 355.070312 694.625 C 356.433594 695.445312 357.816406 696.226562 359.21875 696.976562 C 360.621094 697.726562 362.039062 698.441406 363.476562 699.121094 C 364.914062 699.800781 366.367188 700.445312 367.835938 701.054688 C 369.304688 701.660156 370.785156 702.234375 372.285156 702.769531 C 373.78125 703.304688 375.289062 703.804688 376.8125 704.265625 C 378.332031 704.726562 379.863281 705.152344 381.40625 705.539062 C 382.949219 705.925781 384.5 706.273438 386.058594 706.582031 C 387.617188 706.894531 389.183594 707.164062 390.757812 707.398438 C 392.328125 707.632812 393.90625 707.828125 395.488281 707.980469 C 397.070312 708.136719 398.65625 708.253906 400.246094 708.332031 C 401.832031 708.410156 403.421875 708.449219 405.011719 708.449219 C 406.601562 708.449219 408.191406 708.410156 409.777344 708.332031 C 411.367188 708.257812 412.949219 708.140625 414.53125 707.984375 C 416.117188 707.828125 417.691406 707.632812 419.265625 707.398438 C 420.839844 707.167969 422.402344 706.894531 423.964844 706.585938 C 425.523438 706.273438 427.074219 705.925781 428.617188 705.539062 C 430.160156 705.152344 431.691406 704.730469 433.210938 704.269531 C 434.734375 703.808594 436.242188 703.308594 437.738281 702.773438 C 439.234375 702.238281 440.71875 701.667969 442.1875 701.058594 C 443.65625 700.449219 445.109375 699.804688 446.546875 699.125 C 447.984375 698.445312 449.402344 697.730469 450.804688 696.980469 C 452.207031 696.234375 453.589844 695.449219 454.957031 694.632812 C 456.320312 693.816406 457.660156 692.964844 458.984375 692.082031 C 460.304688 691.199219 461.605469 690.28125 462.882812 689.335938 C 464.160156 688.386719 465.414062 687.410156 466.640625 686.402344 C 467.871094 685.394531 469.074219 684.355469 470.25 683.289062 C 471.429688 682.21875 472.582031 681.125 473.707031 680 C 474.828125 678.875 475.925781 677.726562 476.992188 676.546875 C 478.0625 675.367188 479.097656 674.164062 480.109375 672.9375 C 481.117188 671.707031 482.09375 670.453125 483.042969 669.175781 C 483.988281 667.898438 484.902344 666.601562 485.789062 665.277344 C 486.671875 663.957031 487.519531 662.613281 488.339844 661.25 C 489.15625 659.886719 489.9375 658.503906 490.6875 657.101562 C 491.4375 655.699219 492.152344 654.28125 492.832031 652.84375 C 493.511719 651.40625 494.15625 649.953125 494.765625 648.484375 C 495.375 647.015625 495.945312 645.53125 496.480469 644.035156 C 497.015625 642.539062 497.515625 641.027344 497.976562 639.507812 C 498.4375 637.984375 498.863281 636.453125 499.25 634.910156 C 499.636719 633.371094 499.984375 631.820312 500.292969 630.257812 C 500.605469 628.699219 500.875 627.132812 501.109375 625.5625 C 501.34375 623.988281 501.535156 622.410156 501.691406 620.828125 C 501.847656 619.246094 501.964844 617.660156 502.042969 616.074219 C 502.121094 614.484375 502.160156 612.898438 502.160156 611.308594 C 502.160156 609.71875 502.117188 608.128906 502.039062 606.542969 C 501.957031 604.957031 501.839844 603.371094 501.683594 601.789062 C 501.527344 600.207031 501.332031 598.632812 501.097656 597.058594 C 500.863281 595.488281 500.589844 593.921875 500.277344 592.363281 C 499.964844 590.804688 499.617188 589.257812 499.230469 587.714844 C 498.84375 586.171875 498.417969 584.640625 497.957031 583.121094 C 497.492188 581.601562 496.996094 580.09375 496.457031 578.597656 C 495.921875 577.101562 495.347656 575.621094 494.742188 574.152344 C 494.132812 572.683594 493.488281 571.230469 492.808594 569.792969 C 492.128906 568.359375 491.414062 566.941406 490.664062 565.539062 C 489.914062 564.136719 489.128906 562.753906 488.3125 561.390625 C 487.496094 560.027344 486.644531 558.6875 485.761719 557.367188 C 484.878906 556.042969 483.964844 554.746094 483.015625 553.46875 C 482.070312 552.191406 481.09375 550.941406 480.082031 549.710938 C 479.074219 548.484375 478.039062 547.28125 476.96875 546.101562 C 475.902344 544.925781 474.808594 543.773438 473.683594 542.652344 C 472.558594 541.527344 471.410156 540.433594 470.234375 539.363281 C 469.054688 538.296875 467.851562 537.257812 466.625 536.25 C 465.394531 535.242188 464.144531 534.265625 462.867188 533.316406 C 461.589844 532.371094 460.292969 531.457031 458.972656 530.570312 C 457.652344 529.6875 456.308594 528.835938 454.945312 528.019531 C 453.582031 527.203125 452.203125 526.417969 450.800781 525.667969 C 449.398438 524.917969 447.980469 524.203125 446.542969 523.523438 C 445.109375 522.84375 443.65625 522.199219 442.1875 521.589844 C 440.71875 520.980469 439.238281 520.40625 437.742188 519.871094 C 436.246094 519.335938 434.738281 518.835938 433.21875 518.371094 C 431.695312 517.910156 430.167969 517.484375 428.625 517.097656 C 427.082031 516.710938 425.535156 516.359375 423.976562 516.050781 C 422.417969 515.738281 420.851562 515.464844 419.28125 515.230469 C 417.707031 514.996094 416.132812 514.800781 414.550781 514.640625 C 412.96875 514.484375 411.386719 514.367188 409.796875 514.285156 C 408.210938 514.207031 406.621094 514.164062 405.035156 514.164062 Z M 405.035156 701.785156 C 403.550781 701.785156 402.070312 701.75 400.59375 701.675781 C 399.113281 701.601562 397.636719 701.496094 396.164062 701.351562 C 394.6875 701.203125 393.21875 701.023438 391.753906 700.808594 C 390.289062 700.589844 388.828125 700.335938 387.378906 700.046875 C 385.925781 699.757812 384.480469 699.433594 383.042969 699.074219 C 381.605469 698.714844 380.179688 698.320312 378.761719 697.890625 C 377.34375 697.460938 375.9375 696.996094 374.542969 696.5 C 373.148438 696 371.769531 695.46875 370.398438 694.902344 C 369.03125 694.335938 367.675781 693.734375 366.339844 693.101562 C 365 692.46875 363.675781 691.804688 362.371094 691.105469 C 361.0625 690.40625 359.773438 689.675781 358.503906 688.914062 C 357.234375 688.15625 355.984375 687.363281 354.75 686.539062 C 353.519531 685.71875 352.308594 684.863281 351.121094 683.984375 C 349.929688 683.101562 348.761719 682.191406 347.617188 681.25 C 346.472656 680.3125 345.351562 679.34375 344.253906 678.347656 C 343.15625 677.355469 342.082031 676.332031 341.035156 675.285156 C 339.988281 674.238281 338.96875 673.167969 337.972656 672.070312 C 336.976562 670.972656 336.011719 669.851562 335.070312 668.707031 C 334.132812 667.5625 333.21875 666.394531 332.335938 665.207031 C 331.457031 664.015625 330.601562 662.804688 329.78125 661.574219 C 328.957031 660.34375 328.164062 659.089844 327.402344 657.820312 C 326.640625 656.550781 325.910156 655.261719 325.214844 653.957031 C 324.515625 652.652344 323.847656 651.328125 323.214844 649.988281 C 322.582031 648.652344 321.980469 647.296875 321.414062 645.929688 C 320.847656 644.558594 320.316406 643.179688 319.816406 641.785156 C 319.316406 640.390625 318.851562 638.984375 318.421875 637.566406 C 317.992188 636.148438 317.597656 634.722656 317.238281 633.285156 C 316.878906 631.847656 316.550781 630.40625 316.261719 628.953125 C 315.972656 627.5 315.722656 626.039062 315.503906 624.574219 C 315.285156 623.109375 315.105469 621.640625 314.960938 620.167969 C 314.8125 618.691406 314.707031 617.214844 314.632812 615.738281 C 314.558594 614.257812 314.523438 612.777344 314.523438 611.296875 C 314.523438 609.816406 314.558594 608.335938 314.632812 606.855469 C 314.703125 605.375 314.8125 603.898438 314.957031 602.425781 C 315.105469 600.953125 315.285156 599.480469 315.503906 598.015625 C 315.71875 596.550781 315.972656 595.09375 316.261719 593.640625 C 316.550781 592.1875 316.875 590.742188 317.234375 589.304688 C 317.59375 587.871094 317.988281 586.441406 318.417969 585.023438 C 318.847656 583.609375 319.3125 582.203125 319.8125 580.808594 C 320.3125 579.414062 320.84375 578.03125 321.410156 576.664062 C 321.976562 575.292969 322.578125 573.941406 323.210938 572.601562 C 323.84375 571.261719 324.507812 569.941406 325.207031 568.632812 C 325.90625 567.328125 326.636719 566.039062 327.398438 564.769531 C 328.160156 563.5 328.949219 562.246094 329.773438 561.015625 C 330.597656 559.785156 331.449219 558.574219 332.332031 557.382812 C 333.214844 556.195312 334.125 555.027344 335.0625 553.882812 C 336.003906 552.738281 336.96875 551.617188 337.964844 550.519531 C 338.960938 549.421875 339.980469 548.347656 341.027344 547.300781 C 342.074219 546.253906 343.148438 545.234375 344.246094 544.238281 C 345.34375 543.246094 346.464844 542.277344 347.609375 541.339844 C 348.753906 540.398438 349.921875 539.488281 351.109375 538.605469 C 352.300781 537.722656 353.511719 536.871094 354.742188 536.046875 C 355.972656 535.226562 357.226562 534.433594 358.496094 533.671875 C 359.765625 532.910156 361.054688 532.179688 362.359375 531.480469 C 363.667969 530.785156 364.988281 530.117188 366.328125 529.484375 C 367.667969 528.851562 369.019531 528.25 370.390625 527.683594 C 371.757812 527.117188 373.140625 526.585938 374.535156 526.085938 C 375.929688 525.585938 377.332031 525.121094 378.75 524.691406 C 380.167969 524.261719 381.59375 523.867188 383.03125 523.507812 C 384.46875 523.148438 385.914062 522.824219 387.367188 522.535156 C 388.820312 522.246094 390.277344 521.992188 391.742188 521.777344 C 393.207031 521.558594 394.675781 521.378906 396.152344 521.234375 C 397.625 521.085938 399.101562 520.980469 400.582031 520.90625 C 402.0625 520.832031 403.542969 520.796875 405.023438 520.796875 C 406.503906 520.796875 407.984375 520.832031 409.460938 520.90625 C 410.941406 520.980469 412.417969 521.089844 413.894531 521.234375 C 415.367188 521.378906 416.835938 521.558594 418.300781 521.777344 C 419.765625 521.996094 421.226562 522.25 422.679688 522.539062 C 424.128906 522.828125 425.574219 523.152344 427.011719 523.511719 C 428.449219 523.871094 429.875 524.265625 431.292969 524.695312 C 432.710938 525.125 434.117188 525.589844 435.511719 526.089844 C 436.90625 526.589844 438.285156 527.121094 439.65625 527.6875 C 441.023438 528.257812 442.375 528.855469 443.714844 529.488281 C 445.054688 530.121094 446.375 530.789062 447.683594 531.488281 C 448.988281 532.183594 450.277344 532.914062 451.546875 533.675781 C 452.816406 534.4375 454.070312 535.230469 455.300781 536.054688 C 456.53125 536.875 457.742188 537.730469 458.929688 538.613281 C 460.121094 539.492188 461.289062 540.40625 462.433594 541.34375 C 463.578125 542.285156 464.699219 543.253906 465.796875 544.246094 C 466.894531 545.242188 467.964844 546.261719 469.011719 547.308594 C 470.058594 548.359375 471.082031 549.429688 472.074219 550.527344 C 473.070312 551.625 474.035156 552.746094 474.976562 553.890625 C 475.914062 555.035156 476.828125 556.203125 477.707031 557.394531 C 478.589844 558.582031 479.441406 559.792969 480.265625 561.027344 C 481.089844 562.257812 481.878906 563.507812 482.640625 564.777344 C 483.402344 566.050781 484.132812 567.335938 484.832031 568.644531 C 485.527344 569.949219 486.195312 571.273438 486.828125 572.613281 C 487.460938 573.949219 488.058594 575.304688 488.625 576.671875 C 489.191406 578.042969 489.726562 579.421875 490.226562 580.816406 C 490.722656 582.210938 491.1875 583.617188 491.617188 585.035156 C 492.046875 586.453125 492.441406 587.878906 492.800781 589.316406 C 493.160156 590.753906 493.484375 592.199219 493.773438 593.652344 C 494.0625 595.105469 494.316406 596.5625 494.53125 598.027344 C 494.75 599.492188 494.929688 600.960938 495.074219 602.4375 C 495.21875 603.910156 495.328125 605.386719 495.402344 606.867188 C 495.472656 608.347656 495.511719 609.828125 495.511719 611.308594 C 495.507812 612.789062 495.46875 614.265625 495.394531 615.746094 C 495.320312 617.222656 495.210938 618.699219 495.0625 620.171875 C 494.914062 621.644531 494.730469 623.113281 494.511719 624.574219 C 494.292969 626.039062 494.039062 627.496094 493.75 628.949219 C 493.457031 630.398438 493.132812 631.84375 492.773438 633.277344 C 492.410156 634.714844 492.015625 636.136719 491.582031 637.554688 C 491.152344 638.96875 490.6875 640.375 490.1875 641.769531 C 489.6875 643.160156 489.152344 644.539062 488.585938 645.90625 C 488.019531 647.273438 487.417969 648.628906 486.785156 649.964844 C 486.152344 651.300781 485.484375 652.625 484.785156 653.929688 C 484.089844 655.234375 483.359375 656.519531 482.597656 657.789062 C 481.835938 659.058594 481.042969 660.308594 480.21875 661.539062 C 479.398438 662.769531 478.546875 663.976562 477.664062 665.164062 C 476.78125 666.355469 475.871094 667.519531 474.929688 668.664062 C 473.992188 669.808594 473.023438 670.929688 472.03125 672.023438 C 471.035156 673.121094 470.015625 674.191406 468.96875 675.238281 C 467.921875 676.285156 466.851562 677.304688 465.753906 678.300781 C 464.660156 679.292969 463.539062 680.261719 462.394531 681.199219 C 461.25 682.136719 460.082031 683.046875 458.894531 683.929688 C 457.707031 684.8125 456.496094 685.664062 455.265625 686.488281 C 454.035156 687.308594 452.785156 688.101562 451.515625 688.863281 C 450.246094 689.625 448.960938 690.355469 447.65625 691.050781 C 446.351562 691.75 445.03125 692.417969 443.691406 693.050781 C 442.355469 693.683594 441.003906 694.285156 439.636719 694.851562 C 438.269531 695.417969 436.886719 695.949219 435.496094 696.449219 C 434.101562 696.949219 432.695312 697.414062 431.28125 697.847656 C 429.863281 698.277344 428.441406 698.671875 427.003906 699.035156 C 425.570312 699.394531 424.125 699.71875 422.675781 700.011719 C 421.222656 700.300781 419.765625 700.554688 418.300781 700.773438 C 416.835938 700.992188 415.371094 701.175781 413.898438 701.320312 C 412.425781 701.46875 410.949219 701.578125 409.46875 701.652344 C 407.992188 701.726562 406.511719 701.765625 405.035156 701.765625 Z M 405.035156 701.785156 " fill-opacity="1" fill-rule="nonzero"/><path fill="#000000" d="M 405.035156 460.945312 C 402.949219 460.945312 400.863281 460.996094 398.777344 461.097656 C 396.695312 461.199219 394.617188 461.351562 392.539062 461.558594 C 390.464844 461.761719 388.394531 462.015625 386.332031 462.324219 C 384.265625 462.628906 382.210938 462.984375 380.167969 463.390625 C 378.121094 463.796875 376.085938 464.253906 374.0625 464.761719 C 372.039062 465.269531 370.03125 465.824219 368.03125 466.429688 C 366.035156 467.035156 364.058594 467.6875 362.09375 468.390625 C 360.128906 469.09375 358.183594 469.84375 356.253906 470.640625 C 354.328125 471.441406 352.421875 472.285156 350.535156 473.175781 C 348.648438 474.066406 346.789062 475.003906 344.949219 475.988281 C 343.109375 476.972656 341.292969 478 339.503906 479.070312 C 337.714844 480.144531 335.953125 481.257812 334.21875 482.417969 C 332.484375 483.578125 330.777344 484.777344 329.101562 486.019531 C 327.425781 487.261719 325.785156 488.542969 324.171875 489.867188 C 322.558594 491.191406 320.980469 492.554688 319.433594 493.953125 C 317.886719 495.355469 316.378906 496.792969 314.902344 498.265625 C 313.425781 499.742188 311.988281 501.253906 310.589844 502.796875 C 309.1875 504.34375 307.824219 505.921875 306.5 507.535156 C 305.179688 509.148438 303.894531 510.789062 302.652344 512.464844 C 301.410156 514.140625 300.207031 515.847656 299.050781 517.582031 C 297.890625 519.316406 296.773438 521.078125 295.703125 522.867188 C 294.628906 524.65625 293.601562 526.46875 292.617188 528.308594 C 291.632812 530.148438 290.695312 532.011719 289.804688 533.898438 C 288.914062 535.78125 288.066406 537.6875 287.269531 539.617188 C 286.472656 541.542969 285.71875 543.488281 285.019531 545.453125 C 284.316406 547.417969 283.660156 549.394531 283.054688 551.390625 C 282.449219 553.386719 281.894531 555.398438 281.386719 557.421875 C 280.878906 559.445312 280.421875 561.480469 280.015625 563.527344 C 279.609375 565.570312 279.25 567.625 278.945312 569.691406 C 278.640625 571.753906 278.382812 573.824219 278.179688 575.898438 C 277.972656 577.972656 277.820312 580.054688 277.71875 582.136719 C 277.617188 584.222656 277.566406 586.304688 277.566406 588.390625 C 277.566406 590.476562 277.617188 592.5625 277.71875 594.644531 C 277.820312 596.730469 277.972656 598.808594 278.179688 600.886719 C 278.382812 602.960938 278.636719 605.03125 278.945312 607.09375 C 279.25 609.15625 279.605469 611.210938 280.011719 613.257812 C 280.417969 615.304688 280.875 617.339844 281.382812 619.363281 C 281.890625 621.386719 282.445312 623.394531 283.050781 625.390625 C 283.65625 627.386719 284.3125 629.367188 285.015625 631.332031 C 285.714844 633.296875 286.46875 635.242188 287.265625 637.167969 C 288.0625 639.09375 288.910156 641 289.800781 642.886719 C 290.691406 644.773438 291.628906 646.636719 292.613281 648.476562 C 293.597656 650.316406 294.625 652.128906 295.695312 653.917969 C 296.769531 655.707031 297.882812 657.46875 299.042969 659.203125 C 300.203125 660.9375 301.402344 662.644531 302.644531 664.320312 C 303.886719 665.996094 305.171875 667.640625 306.496094 669.25 C 307.816406 670.863281 309.179688 672.441406 310.582031 673.988281 C 311.980469 675.535156 313.417969 677.042969 314.894531 678.519531 C 316.371094 679.996094 317.878906 681.433594 319.425781 682.832031 C 320.972656 684.234375 322.550781 685.597656 324.164062 686.917969 C 325.773438 688.242188 327.417969 689.527344 329.09375 690.769531 C 330.769531 692.011719 332.476562 693.210938 334.210938 694.371094 C 335.945312 695.527344 337.707031 696.644531 339.496094 697.71875 C 341.285156 698.789062 343.097656 699.816406 344.9375 700.800781 C 346.777344 701.785156 348.640625 702.722656 350.527344 703.613281 C 352.410156 704.503906 354.316406 705.351562 356.246094 706.148438 C 358.171875 706.945312 360.117188 707.695312 362.082031 708.398438 C 364.046875 709.101562 366.027344 709.757812 368.023438 710.363281 C 370.019531 710.96875 372.027344 711.523438 374.050781 712.03125 C 376.074219 712.539062 378.109375 712.992188 380.15625 713.402344 C 382.203125 713.808594 384.257812 714.164062 386.320312 714.46875 C 388.382812 714.777344 390.453125 715.03125 392.527344 715.234375 C 394.605469 715.441406 396.683594 715.59375 398.769531 715.695312 C 400.851562 715.796875 402.9375 715.847656 405.023438 715.847656 C 407.109375 715.847656 409.191406 715.796875 411.277344 715.695312 C 413.359375 715.59375 415.4375 715.4375 417.515625 715.234375 C 419.589844 715.03125 421.660156 714.773438 423.722656 714.46875 C 425.789062 714.164062 427.84375 713.804688 429.886719 713.398438 C 431.933594 712.992188 433.96875 712.535156 435.992188 712.027344 C 438.015625 711.519531 440.023438 710.964844 442.019531 710.359375 C 444.015625 709.753906 445.996094 709.097656 447.960938 708.394531 C 449.925781 707.691406 451.871094 706.941406 453.796875 706.144531 C 455.726562 705.347656 457.632812 704.5 459.515625 703.609375 C 461.402344 702.714844 463.265625 701.777344 465.105469 700.796875 C 466.945312 699.8125 468.757812 698.785156 470.546875 697.710938 C 472.335938 696.640625 474.097656 695.523438 475.832031 694.363281 C 477.566406 693.203125 479.273438 692.003906 480.949219 690.761719 C 482.621094 689.519531 484.265625 688.234375 485.878906 686.914062 C 487.492188 685.589844 489.070312 684.226562 490.617188 682.824219 C 492.160156 681.425781 493.671875 679.988281 495.148438 678.511719 C 496.621094 677.035156 498.058594 675.527344 499.460938 673.980469 C 500.859375 672.433594 502.222656 670.855469 503.546875 669.242188 C 504.867188 667.628906 506.152344 665.984375 507.394531 664.308594 C 508.636719 662.636719 509.835938 660.929688 510.996094 659.195312 C 512.15625 657.460938 513.269531 655.699219 514.34375 653.910156 C 515.414062 652.121094 516.441406 650.304688 517.425781 648.464844 C 518.410156 646.625 519.347656 644.761719 520.238281 642.878906 C 521.128906 640.992188 521.972656 639.085938 522.773438 637.15625 C 523.570312 635.230469 524.320312 633.285156 525.023438 631.320312 C 525.726562 629.355469 526.378906 627.375 526.984375 625.378906 C 527.589844 623.382812 528.144531 621.375 528.652344 619.351562 C 529.160156 617.328125 529.617188 615.292969 530.023438 613.246094 C 530.429688 611.199219 530.785156 609.144531 531.089844 607.082031 C 531.398438 605.019531 531.652344 602.949219 531.855469 600.875 C 532.0625 598.796875 532.214844 596.71875 532.316406 594.632812 C 532.417969 592.550781 532.46875 590.464844 532.46875 588.378906 C 532.464844 586.296875 532.414062 584.210938 532.308594 582.128906 C 532.203125 580.046875 532.046875 577.96875 531.839844 575.894531 C 531.636719 573.820312 531.378906 571.75 531.070312 569.6875 C 530.761719 567.628906 530.402344 565.574219 529.996094 563.53125 C 529.585938 561.484375 529.128906 559.453125 528.621094 557.429688 C 528.113281 555.40625 527.554688 553.398438 526.949219 551.40625 C 526.339844 549.410156 525.6875 547.429688 524.980469 545.46875 C 524.277344 543.507812 523.527344 541.5625 522.726562 539.636719 C 521.929688 537.710938 521.082031 535.804688 520.191406 533.921875 C 519.296875 532.035156 518.359375 530.175781 517.378906 528.335938 C 516.394531 526.5 515.367188 524.6875 514.292969 522.898438 C 513.21875 521.109375 512.105469 519.351562 510.945312 517.617188 C 509.789062 515.882812 508.585938 514.179688 507.34375 512.503906 C 506.101562 510.832031 504.820312 509.1875 503.496094 507.578125 C 502.171875 505.964844 500.8125 504.386719 499.410156 502.84375 C 498.011719 501.296875 496.574219 499.789062 495.101562 498.3125 C 493.625 496.839844 492.117188 495.402344 490.570312 494.003906 C 489.027344 492.601562 487.449219 491.242188 485.835938 489.917969 C 484.226562 488.59375 482.582031 487.3125 480.910156 486.070312 C 479.234375 484.828125 477.53125 483.625 475.796875 482.46875 C 474.0625 481.308594 472.304688 480.191406 470.515625 479.121094 C 468.726562 478.046875 466.914062 477.019531 465.078125 476.035156 C 463.238281 475.054688 461.375 474.113281 459.492188 473.222656 C 457.609375 472.332031 455.703125 471.484375 453.777344 470.683594 C 451.851562 469.886719 449.90625 469.136719 447.945312 468.429688 C 445.980469 467.726562 444.003906 467.074219 442.007812 466.464844 C 440.015625 465.859375 438.007812 465.300781 435.984375 464.792969 C 433.960938 464.285156 431.929688 463.828125 429.882812 463.417969 C 427.839844 463.011719 425.785156 462.652344 423.722656 462.34375 C 421.664062 462.035156 419.59375 461.777344 417.519531 461.574219 C 415.445312 461.367188 413.367188 461.210938 411.285156 461.105469 C 409.203125 461 407.117188 460.949219 405.035156 460.945312 Z M 405.035156 709.183594 C 403.054688 709.183594 401.082031 709.132812 399.105469 709.039062 C 397.132812 708.941406 395.160156 708.796875 393.191406 708.601562 C 391.226562 708.410156 389.261719 708.167969 387.308594 707.878906 C 385.351562 707.585938 383.402344 707.25 381.464844 706.863281 C 379.527344 706.480469 377.597656 706.046875 375.679688 705.566406 C 373.761719 705.085938 371.855469 704.558594 369.964844 703.984375 C 368.074219 703.410156 366.195312 702.792969 364.335938 702.125 C 362.472656 701.460938 360.628906 700.75 358.800781 699.992188 C 356.976562 699.234375 355.167969 698.433594 353.382812 697.589844 C 351.59375 696.746094 349.828125 695.855469 348.085938 694.925781 C 346.339844 693.992188 344.621094 693.019531 342.925781 692.003906 C 341.230469 690.988281 339.558594 689.929688 337.914062 688.832031 C 336.269531 687.734375 334.65625 686.59375 333.066406 685.417969 C 331.480469 684.242188 329.921875 683.023438 328.390625 681.769531 C 326.863281 680.515625 325.367188 679.226562 323.902344 677.898438 C 322.4375 676.570312 321.003906 675.207031 319.605469 673.808594 C 318.207031 672.414062 316.84375 670.980469 315.519531 669.515625 C 314.191406 668.050781 312.898438 666.554688 311.644531 665.027344 C 310.390625 663.5 309.171875 661.941406 307.996094 660.351562 C 306.816406 658.765625 305.679688 657.148438 304.582031 655.503906 C 303.480469 653.863281 302.425781 652.191406 301.410156 650.496094 C 300.390625 648.800781 299.417969 647.082031 298.484375 645.335938 C 297.554688 643.59375 296.664062 641.828125 295.820312 640.042969 C 294.972656 638.253906 294.171875 636.449219 293.414062 634.621094 C 292.660156 632.792969 291.945312 630.949219 291.28125 629.089844 C 290.613281 627.226562 289.996094 625.351562 289.421875 623.457031 C 288.847656 621.566406 288.320312 619.664062 287.839844 617.746094 C 287.359375 615.828125 286.925781 613.898438 286.539062 611.960938 C 286.152344 610.019531 285.8125 608.074219 285.523438 606.117188 C 285.234375 604.160156 284.992188 602.199219 284.796875 600.234375 C 284.605469 598.265625 284.457031 596.292969 284.359375 594.320312 C 284.265625 592.34375 284.214844 590.367188 284.214844 588.390625 C 284.214844 586.414062 284.261719 584.4375 284.359375 582.464844 C 284.457031 580.488281 284.601562 578.519531 284.796875 576.550781 C 284.988281 574.582031 285.230469 572.621094 285.519531 570.664062 C 285.8125 568.710938 286.148438 566.761719 286.535156 564.824219 C 286.917969 562.882812 287.351562 560.957031 287.832031 559.039062 C 288.3125 557.121094 288.839844 555.214844 289.414062 553.324219 C 289.988281 551.429688 290.605469 549.554688 291.273438 547.691406 C 291.9375 545.832031 292.648438 543.988281 293.40625 542.160156 C 294.164062 540.335938 294.964844 538.527344 295.808594 536.738281 C 296.652344 534.953125 297.542969 533.1875 298.472656 531.441406 C 299.40625 529.699219 300.378906 527.980469 301.398438 526.285156 C 302.414062 524.589844 303.46875 522.917969 304.570312 521.273438 C 305.667969 519.628906 306.804688 518.015625 307.984375 516.425781 C 309.160156 514.839844 310.375 513.28125 311.628906 511.75 C 312.882812 510.222656 314.175781 508.726562 315.503906 507.261719 C 316.832031 505.796875 318.191406 504.363281 319.589844 502.964844 C 320.988281 501.570312 322.421875 500.207031 323.886719 498.878906 C 325.351562 497.550781 326.847656 496.257812 328.375 495.003906 C 329.902344 493.75 331.460938 492.535156 333.050781 491.355469 C 334.636719 490.179688 336.253906 489.039062 337.894531 487.941406 C 339.539062 486.84375 341.210938 485.785156 342.90625 484.769531 C 344.601562 483.753906 346.320312 482.777344 348.066406 481.847656 C 349.808594 480.914062 351.574219 480.027344 353.359375 479.179688 C 355.148438 478.335938 356.953125 477.535156 358.78125 476.777344 C 360.609375 476.019531 362.453125 475.308594 364.3125 474.644531 C 366.175781 473.976562 368.050781 473.355469 369.945312 472.78125 C 371.835938 472.207031 373.738281 471.679688 375.65625 471.199219 C 377.574219 470.71875 379.503906 470.285156 381.441406 469.902344 C 383.382812 469.515625 385.328125 469.175781 387.285156 468.886719 C 389.242188 468.597656 391.203125 468.355469 393.171875 468.160156 C 395.136719 467.96875 397.109375 467.820312 399.082031 467.726562 C 401.058594 467.628906 403.035156 467.578125 405.011719 467.578125 C 406.988281 467.578125 408.964844 467.628906 410.9375 467.722656 C 412.914062 467.820312 414.882812 467.964844 416.851562 468.160156 C 418.820312 468.355469 420.78125 468.59375 422.738281 468.886719 C 424.691406 469.175781 426.640625 469.511719 428.578125 469.898438 C 430.519531 470.285156 432.445312 470.71875 434.363281 471.199219 C 436.28125 471.679688 438.1875 472.207031 440.078125 472.777344 C 441.972656 473.351562 443.847656 473.972656 445.710938 474.640625 C 447.570312 475.304688 449.414062 476.015625 451.242188 476.773438 C 453.066406 477.527344 454.875 478.332031 456.664062 479.175781 C 458.449219 480.019531 460.214844 480.910156 461.957031 481.839844 C 463.703125 482.773438 465.421875 483.746094 467.117188 484.761719 C 468.8125 485.78125 470.484375 486.835938 472.128906 487.9375 C 473.773438 489.035156 475.386719 490.171875 476.976562 491.351562 C 478.5625 492.527344 480.121094 493.742188 481.648438 494.996094 C 483.179688 496.25 484.675781 497.542969 486.140625 498.871094 C 487.605469 500.199219 489.035156 501.5625 490.433594 502.957031 C 491.832031 504.355469 493.195312 505.789062 494.523438 507.253906 C 495.851562 508.71875 497.140625 510.214844 498.394531 511.742188 C 499.652344 513.269531 500.867188 514.828125 502.042969 516.417969 C 503.222656 518.003906 504.359375 519.621094 505.457031 521.265625 C 506.558594 522.910156 507.613281 524.578125 508.628906 526.273438 C 509.648438 527.96875 510.621094 529.691406 511.554688 531.433594 C 512.484375 533.175781 513.375 534.941406 514.21875 536.730469 C 515.066406 538.515625 515.867188 540.324219 516.621094 542.152344 C 517.378906 543.976562 518.089844 545.820312 518.757812 547.683594 C 519.421875 549.542969 520.042969 551.421875 520.617188 553.3125 C 521.191406 555.203125 521.71875 557.109375 522.199219 559.027344 C 522.679688 560.945312 523.113281 562.875 523.496094 564.8125 C 523.882812 566.75 524.21875 568.699219 524.511719 570.65625 C 524.800781 572.609375 525.042969 574.570312 525.238281 576.539062 C 525.429688 578.507812 525.574219 580.476562 525.671875 582.453125 C 525.769531 584.425781 525.820312 586.402344 525.816406 588.378906 C 525.816406 590.355469 525.765625 592.332031 525.667969 594.304688 C 525.566406 596.277344 525.421875 598.25 525.226562 600.214844 C 525.027344 602.183594 524.785156 604.144531 524.492188 606.097656 C 524.203125 608.050781 523.863281 610 523.476562 611.9375 C 523.089844 613.875 522.652344 615.800781 522.171875 617.71875 C 521.691406 619.636719 521.164062 621.539062 520.585938 623.429688 C 520.011719 625.320312 519.390625 627.195312 518.726562 629.054688 C 518.058594 630.917969 517.347656 632.757812 516.589844 634.585938 C 515.832031 636.410156 515.03125 638.214844 514.183594 640.003906 C 513.339844 641.789062 512.449219 643.550781 511.515625 645.296875 C 510.585938 647.039062 509.609375 648.757812 508.59375 650.453125 C 507.578125 652.144531 506.519531 653.816406 505.421875 655.457031 C 504.324219 657.101562 503.1875 658.714844 502.007812 660.304688 C 500.832031 661.890625 499.617188 663.449219 498.363281 664.976562 C 497.109375 666.503906 495.816406 668 494.488281 669.460938 C 493.164062 670.925781 491.800781 672.359375 490.402344 673.753906 C 489.007812 675.152344 487.574219 676.515625 486.109375 677.84375 C 484.648438 679.171875 483.152344 680.460938 481.625 681.714844 C 480.097656 682.96875 478.539062 684.183594 476.953125 685.363281 C 475.367188 686.539062 473.75 687.679688 472.109375 688.777344 C 470.464844 689.875 468.796875 690.933594 467.101562 691.949219 C 465.40625 692.964844 463.6875 693.941406 461.945312 694.875 C 460.203125 695.804688 458.4375 696.695312 456.652344 697.542969 C 454.867188 698.386719 453.0625 699.1875 451.234375 699.945312 C 449.410156 700.703125 447.566406 701.417969 445.707031 702.082031 C 443.847656 702.75 441.972656 703.371094 440.082031 703.945312 C 438.191406 704.523438 436.289062 705.050781 434.371094 705.53125 C 432.453125 706.015625 430.527344 706.449219 428.589844 706.835938 C 426.652344 707.222656 424.703125 707.5625 422.75 707.855469 C 420.796875 708.148438 418.835938 708.390625 416.867188 708.585938 C 414.902344 708.78125 412.933594 708.929688 410.957031 709.03125 C 408.984375 709.128906 407.007812 709.179688 405.035156 709.183594 Z M 405.035156 709.183594 " fill-opacity="1" fill-rule="nonzero"/><path fill="#000000" d="M 405.035156 407.710938 C 402.453125 407.710938 399.871094 407.773438 397.292969 407.898438 C 394.710938 408.027344 392.136719 408.214844 389.570312 408.46875 C 387 408.722656 384.4375 409.035156 381.882812 409.414062 C 379.328125 409.792969 376.785156 410.234375 374.253906 410.738281 C 371.722656 411.242188 369.203125 411.808594 366.699219 412.433594 C 364.191406 413.0625 361.703125 413.75 359.234375 414.5 C 356.761719 415.25 354.3125 416.058594 351.882812 416.925781 C 349.449219 417.796875 347.042969 418.726562 344.65625 419.714844 C 342.269531 420.703125 339.910156 421.746094 337.574219 422.851562 C 335.242188 423.957031 332.9375 425.117188 330.660156 426.332031 C 328.382812 427.550781 326.136719 428.820312 323.921875 430.148438 C 321.707031 431.476562 319.523438 432.855469 317.378906 434.292969 C 315.230469 435.726562 313.121094 437.210938 311.046875 438.75 C 308.972656 440.289062 306.9375 441.875 304.941406 443.515625 C 302.945312 445.152344 300.992188 446.835938 299.078125 448.570312 C 297.164062 450.304688 295.292969 452.085938 293.46875 453.910156 C 291.644531 455.738281 289.863281 457.605469 288.128906 459.519531 C 286.394531 461.433594 284.707031 463.386719 283.070312 465.382812 C 281.433594 467.378906 279.84375 469.414062 278.304688 471.488281 C 276.769531 473.5625 275.28125 475.671875 273.847656 477.816406 C 272.414062 479.964844 271.03125 482.144531 269.703125 484.359375 C 268.375 486.574219 267.105469 488.820312 265.886719 491.097656 C 264.667969 493.375 263.507812 495.679688 262.40625 498.015625 C 261.300781 500.347656 260.253906 502.707031 259.265625 505.09375 C 258.277344 507.480469 257.347656 509.886719 256.480469 512.320312 C 255.609375 514.75 254.800781 517.199219 254.050781 519.671875 C 253.300781 522.144531 252.613281 524.628906 251.984375 527.136719 C 251.355469 529.640625 250.792969 532.160156 250.289062 534.691406 C 249.785156 537.222656 249.34375 539.765625 248.964844 542.320312 C 248.585938 544.875 248.269531 547.4375 248.015625 550.007812 C 247.761719 552.574219 247.574219 555.148438 247.445312 557.730469 C 247.320312 560.308594 247.257812 562.886719 247.257812 565.46875 C 247.257812 568.050781 247.320312 570.632812 247.445312 573.210938 C 247.574219 575.789062 247.761719 578.363281 248.015625 580.933594 C 248.269531 583.503906 248.585938 586.066406 248.964844 588.621094 C 249.34375 591.175781 249.785156 593.71875 250.289062 596.25 C 250.792969 598.78125 251.355469 601.300781 251.984375 603.804688 C 252.613281 606.308594 253.300781 608.796875 254.050781 611.269531 C 254.800781 613.738281 255.609375 616.191406 256.480469 618.621094 C 257.347656 621.054688 258.277344 623.460938 259.265625 625.847656 C 260.253906 628.230469 261.300781 630.59375 262.40625 632.925781 C 263.507812 635.261719 264.667969 637.566406 265.886719 639.84375 C 267.105469 642.121094 268.375 644.367188 269.703125 646.582031 C 271.03125 648.796875 272.414062 650.976562 273.847656 653.121094 C 275.28125 655.269531 276.769531 657.378906 278.304688 659.453125 C 279.84375 661.527344 281.433594 663.5625 283.070312 665.558594 C 284.707031 667.554688 286.394531 669.507812 288.128906 671.421875 C 289.863281 673.335938 291.644531 675.203125 293.46875 677.03125 C 295.292969 678.855469 297.164062 680.636719 299.078125 682.371094 C 300.992188 684.101562 302.945312 685.789062 304.941406 687.425781 C 306.9375 689.066406 308.972656 690.652344 311.046875 692.191406 C 313.121094 693.730469 315.230469 695.214844 317.378906 696.648438 C 319.523438 698.082031 321.707031 699.464844 323.921875 700.792969 C 326.136719 702.117188 328.382812 703.390625 330.660156 704.609375 C 332.9375 705.824219 335.242188 706.984375 337.574219 708.089844 C 339.910156 709.191406 342.269531 710.238281 344.65625 711.226562 C 347.042969 712.214844 349.449219 713.144531 351.882812 714.011719 C 354.3125 714.882812 356.761719 715.691406 359.234375 716.441406 C 361.703125 717.191406 364.191406 717.878906 366.699219 718.507812 C 369.203125 719.132812 371.722656 719.699219 374.253906 720.203125 C 376.785156 720.707031 379.328125 721.148438 381.882812 721.527344 C 384.4375 721.902344 387 722.21875 389.570312 722.472656 C 392.136719 722.726562 394.710938 722.914062 397.292969 723.042969 C 399.871094 723.167969 402.449219 723.230469 405.03125 723.230469 C 407.613281 723.230469 410.195312 723.167969 412.773438 723.039062 C 415.351562 722.914062 417.929688 722.722656 420.496094 722.46875 C 423.066406 722.214844 425.628906 721.898438 428.183594 721.519531 C 430.738281 721.140625 433.28125 720.699219 435.8125 720.195312 C 438.34375 719.691406 440.863281 719.125 443.367188 718.5 C 445.871094 717.871094 448.359375 717.183594 450.832031 716.433594 C 453.300781 715.683594 455.753906 714.871094 458.183594 714.003906 C 460.613281 713.132812 463.023438 712.203125 465.40625 711.214844 C 467.792969 710.226562 470.152344 709.179688 472.488281 708.074219 C 474.820312 706.972656 477.125 705.808594 479.402344 704.59375 C 481.679688 703.375 483.925781 702.101562 486.140625 700.773438 C 488.355469 699.445312 490.535156 698.066406 492.683594 696.628906 C 494.828125 695.195312 496.9375 693.710938 499.011719 692.171875 C 501.085938 690.632812 503.121094 689.042969 505.117188 687.40625 C 507.113281 685.765625 509.066406 684.082031 510.980469 682.347656 C 512.894531 680.613281 514.761719 678.832031 516.585938 677.007812 C 518.414062 675.179688 520.191406 673.308594 521.925781 671.398438 C 523.660156 669.484375 525.347656 667.527344 526.984375 665.53125 C 528.621094 663.535156 530.207031 661.5 531.746094 659.425781 C 533.285156 657.351562 534.769531 655.242188 536.203125 653.09375 C 537.640625 650.949219 539.019531 648.765625 540.347656 646.550781 C 541.671875 644.335938 542.945312 642.089844 544.164062 639.8125 C 545.378906 637.535156 546.539062 635.230469 547.644531 632.894531 C 548.746094 630.5625 549.792969 628.203125 550.78125 625.816406 C 551.765625 623.429688 552.695312 621.023438 553.566406 618.589844 C 554.433594 616.160156 555.242188 613.707031 555.992188 611.238281 C 556.742188 608.765625 557.429688 606.277344 558.054688 603.773438 C 558.683594 601.269531 559.25 598.75 559.75 596.21875 C 560.253906 593.683594 560.695312 591.140625 561.074219 588.585938 C 561.453125 586.03125 561.769531 583.472656 562.019531 580.902344 C 562.273438 578.332031 562.460938 575.757812 562.589844 573.179688 C 562.714844 570.601562 562.777344 568.019531 562.777344 565.4375 C 562.773438 562.855469 562.707031 560.277344 562.578125 557.699219 C 562.445312 555.125 562.253906 552.550781 561.996094 549.984375 C 561.742188 547.414062 561.421875 544.855469 561.042969 542.304688 C 560.660156 539.75 560.214844 537.210938 559.710938 534.679688 C 559.203125 532.148438 558.636719 529.632812 558.007812 527.128906 C 557.378906 524.625 556.6875 522.140625 555.9375 519.671875 C 555.183594 517.203125 554.375 514.753906 553.503906 512.324219 C 552.632812 509.898438 551.699219 507.492188 550.710938 505.105469 C 549.722656 502.722656 548.675781 500.367188 547.570312 498.035156 C 546.464844 495.703125 545.304688 493.398438 544.085938 491.125 C 542.867188 488.847656 541.597656 486.605469 540.269531 484.390625 C 538.941406 482.179688 537.558594 480 536.125 477.855469 C 534.691406 475.710938 533.203125 473.601562 531.667969 471.527344 C 530.128906 469.457031 528.542969 467.421875 526.902344 465.429688 C 525.265625 463.433594 523.582031 461.480469 521.847656 459.570312 C 520.113281 457.65625 518.335938 455.789062 516.511719 453.964844 C 514.6875 452.140625 512.816406 450.359375 510.90625 448.628906 C 508.992188 446.894531 507.039062 445.210938 505.046875 443.574219 C 503.050781 441.933594 501.015625 440.347656 498.945312 438.808594 C 496.871094 437.273438 494.765625 435.785156 492.617188 434.351562 C 490.472656 432.917969 488.292969 431.539062 486.082031 430.210938 C 483.867188 428.882812 481.625 427.609375 479.347656 426.390625 C 477.074219 425.175781 474.769531 424.015625 472.4375 422.910156 C 470.105469 421.804688 467.746094 420.757812 465.363281 419.769531 C 462.980469 418.78125 460.574219 417.851562 458.144531 416.980469 C 455.714844 416.109375 453.265625 415.296875 450.796875 414.546875 C 448.328125 413.796875 445.84375 413.105469 443.339844 412.476562 C 440.839844 411.847656 438.320312 411.277344 435.792969 410.773438 C 433.261719 410.269531 430.71875 409.824219 428.167969 409.441406 C 425.617188 409.0625 423.054688 408.742188 420.488281 408.488281 C 417.917969 408.230469 415.347656 408.039062 412.769531 407.910156 C 410.191406 407.78125 407.613281 407.714844 405.035156 407.710938 Z M 405.035156 716.5625 C 402.558594 716.5625 400.089844 716.503906 397.617188 716.382812 C 395.148438 716.261719 392.683594 716.082031 390.222656 715.839844 C 387.761719 715.597656 385.308594 715.292969 382.859375 714.929688 C 380.414062 714.566406 377.976562 714.144531 375.554688 713.664062 C 373.128906 713.179688 370.714844 712.640625 368.316406 712.039062 C 365.917969 711.4375 363.535156 710.78125 361.167969 710.0625 C 358.800781 709.34375 356.453125 708.570312 354.125 707.734375 C 351.796875 706.902344 349.488281 706.015625 347.203125 705.066406 C 344.917969 704.121094 342.660156 703.121094 340.421875 702.0625 C 338.1875 701.003906 335.980469 699.894531 333.796875 698.730469 C 331.617188 697.5625 329.464844 696.34375 327.34375 695.074219 C 325.222656 693.804688 323.132812 692.480469 321.078125 691.105469 C 319.023438 689.734375 317 688.308594 315.011719 686.835938 C 313.027344 685.363281 311.078125 683.84375 309.167969 682.273438 C 307.253906 680.707031 305.382812 679.089844 303.550781 677.429688 C 301.71875 675.769531 299.925781 674.066406 298.175781 672.316406 C 296.429688 670.566406 294.722656 668.777344 293.0625 666.945312 C 291.402344 665.113281 289.785156 663.242188 288.21875 661.328125 C 286.648438 659.417969 285.128906 657.46875 283.652344 655.484375 C 282.179688 653.496094 280.757812 651.476562 279.382812 649.421875 C 278.007812 647.363281 276.683594 645.273438 275.414062 643.152344 C 274.140625 641.03125 272.921875 638.882812 271.757812 636.703125 C 270.589844 634.519531 269.480469 632.3125 268.421875 630.078125 C 267.363281 627.839844 266.363281 625.582031 265.414062 623.296875 C 264.46875 621.011719 263.578125 618.707031 262.746094 616.375 C 261.910156 614.046875 261.136719 611.699219 260.417969 609.335938 C 259.699219 606.96875 259.039062 604.585938 258.4375 602.1875 C 257.835938 599.789062 257.296875 597.375 256.8125 594.949219 C 256.332031 592.523438 255.90625 590.089844 255.542969 587.644531 C 255.179688 585.195312 254.878906 582.742188 254.636719 580.28125 C 254.394531 577.820312 254.210938 575.355469 254.089844 572.886719 C 253.96875 570.414062 253.90625 567.945312 253.90625 565.46875 C 253.90625 562.996094 253.964844 560.527344 254.085938 558.054688 C 254.207031 555.585938 254.390625 553.121094 254.632812 550.660156 C 254.875 548.199219 255.175781 545.742188 255.539062 543.296875 C 255.902344 540.851562 256.324219 538.414062 256.808594 535.988281 C 257.289062 533.5625 257.832031 531.152344 258.429688 528.753906 C 259.03125 526.355469 259.691406 523.972656 260.410156 521.605469 C 261.125 519.238281 261.902344 516.890625 262.734375 514.5625 C 263.566406 512.234375 264.457031 509.925781 265.402344 507.640625 C 266.347656 505.355469 267.351562 503.097656 268.40625 500.859375 C 269.464844 498.625 270.574219 496.417969 271.742188 494.234375 C 272.90625 492.054688 274.125 489.902344 275.398438 487.78125 C 276.667969 485.660156 277.988281 483.570312 279.363281 481.515625 C 280.738281 479.457031 282.160156 477.4375 283.632812 475.449219 C 285.105469 473.464844 286.628906 471.515625 288.195312 469.601562 C 289.765625 467.691406 291.378906 465.820312 293.039062 463.988281 C 294.699219 462.152344 296.40625 460.363281 298.152344 458.613281 C 299.902344 456.867188 301.691406 455.160156 303.523438 453.5 C 305.355469 451.839844 307.230469 450.222656 309.140625 448.65625 C 311.050781 447.085938 313 445.5625 314.988281 444.089844 C 316.972656 442.617188 318.996094 441.195312 321.050781 439.820312 C 323.105469 438.445312 325.195312 437.121094 327.316406 435.851562 C 329.4375 434.578125 331.589844 433.359375 333.769531 432.195312 C 335.949219 431.027344 338.15625 429.917969 340.394531 428.859375 C 342.628906 427.800781 344.890625 426.800781 347.175781 425.851562 C 349.457031 424.90625 351.765625 424.015625 354.09375 423.183594 C 356.421875 422.347656 358.769531 421.574219 361.136719 420.855469 C 363.503906 420.136719 365.886719 419.476562 368.285156 418.875 C 370.683594 418.273438 373.09375 417.734375 375.519531 417.25 C 377.945312 416.769531 380.382812 416.34375 382.828125 415.980469 C 385.273438 415.617188 387.726562 415.316406 390.1875 415.074219 C 392.648438 414.832031 395.117188 414.648438 397.585938 414.527344 C 400.054688 414.40625 402.527344 414.34375 405 414.34375 C 407.472656 414.34375 409.945312 414.402344 412.414062 414.523438 C 414.882812 414.644531 417.351562 414.828125 419.8125 415.070312 C 422.273438 415.3125 424.726562 415.613281 427.171875 415.976562 C 429.617188 416.339844 432.054688 416.761719 434.480469 417.242188 C 436.90625 417.726562 439.316406 418.265625 441.71875 418.867188 C 444.117188 419.46875 446.5 420.128906 448.867188 420.84375 C 451.230469 421.5625 453.578125 422.339844 455.910156 423.171875 C 458.238281 424.003906 460.542969 424.894531 462.828125 425.839844 C 465.113281 426.785156 467.375 427.789062 469.609375 428.84375 C 471.84375 429.902344 474.054688 431.011719 476.234375 432.179688 C 478.414062 433.34375 480.566406 434.5625 482.6875 435.832031 C 484.808594 437.105469 486.898438 438.425781 488.957031 439.800781 C 491.011719 441.175781 493.03125 442.597656 495.019531 444.070312 C 497.007812 445.542969 498.957031 447.066406 500.867188 448.632812 C 502.777344 450.203125 504.652344 451.816406 506.484375 453.476562 C 508.316406 455.136719 510.105469 456.84375 511.855469 458.589844 C 513.605469 460.339844 515.308594 462.128906 516.96875 463.960938 C 518.632812 465.792969 520.246094 467.667969 521.816406 469.578125 C 523.386719 471.488281 524.90625 473.4375 526.378906 475.425781 C 527.851562 477.410156 529.277344 479.429688 530.652344 481.488281 C 532.023438 483.542969 533.347656 485.632812 534.621094 487.753906 C 535.890625 489.875 537.109375 492.023438 538.277344 494.207031 C 539.441406 496.386719 540.554688 498.59375 541.613281 500.832031 C 542.667969 503.066406 543.671875 505.328125 544.617188 507.609375 C 545.566406 509.894531 546.453125 512.203125 547.289062 514.53125 C 548.121094 516.859375 548.898438 519.207031 549.617188 521.574219 C 550.332031 523.9375 550.992188 526.320312 551.59375 528.722656 C 552.195312 531.121094 552.738281 533.53125 553.21875 535.957031 C 553.703125 538.382812 554.125 540.820312 554.488281 543.265625 C 554.851562 545.710938 555.15625 548.164062 555.398438 550.625 C 555.640625 553.085938 555.824219 555.550781 555.945312 558.023438 C 556.066406 560.492188 556.125 562.964844 556.125 565.4375 C 556.125 567.910156 556.0625 570.378906 555.9375 572.847656 C 555.8125 575.316406 555.628906 577.78125 555.382812 580.242188 C 555.140625 582.703125 554.835938 585.15625 554.46875 587.601562 C 554.105469 590.046875 553.679688 592.480469 553.195312 594.90625 C 552.710938 597.328125 552.167969 599.742188 551.566406 602.136719 C 550.964844 604.535156 550.304688 606.917969 549.582031 609.28125 C 548.863281 611.648438 548.089844 613.992188 547.253906 616.320312 C 546.417969 618.648438 545.527344 620.953125 544.582031 623.238281 C 543.632812 625.519531 542.632812 627.78125 541.574219 630.015625 C 540.515625 632.25 539.402344 634.457031 538.238281 636.636719 C 537.070312 638.816406 535.851562 640.964844 534.582031 643.085938 C 533.308594 645.207031 531.988281 647.292969 530.613281 649.347656 C 529.238281 651.40625 527.816406 653.425781 526.34375 655.410156 C 524.871094 657.394531 523.347656 659.34375 521.78125 661.253906 C 520.210938 663.167969 518.597656 665.039062 516.9375 666.871094 C 515.277344 668.703125 513.574219 670.492188 511.824219 672.238281 C 510.078125 673.988281 508.289062 675.691406 506.457031 677.351562 C 504.625 679.011719 502.753906 680.628906 500.84375 682.195312 C 498.933594 683.765625 496.984375 685.285156 495 686.761719 C 493.015625 688.234375 490.996094 689.65625 488.941406 691.03125 C 486.882812 692.40625 484.796875 693.730469 482.675781 695 C 480.558594 696.273438 478.40625 697.492188 476.226562 698.660156 C 474.046875 699.824219 471.839844 700.9375 469.605469 701.996094 C 467.375 703.054688 465.113281 704.058594 462.832031 705.007812 C 460.546875 705.953125 458.242188 706.84375 455.914062 707.679688 C 453.589844 708.515625 451.242188 709.292969 448.878906 710.011719 C 446.511719 710.730469 444.128906 711.390625 441.734375 711.996094 C 439.335938 712.597656 436.925781 713.140625 434.5 713.628906 C 432.074219 714.113281 429.640625 714.535156 427.195312 714.902344 C 424.75 715.269531 422.300781 715.574219 419.839844 715.816406 C 417.378906 716.0625 414.914062 716.25 412.445312 716.371094 C 409.976562 716.496094 407.503906 716.5625 405.035156 716.5625 Z M 405.035156 716.5625 " fill-opacity="1" fill-rule="nonzero"/><path fill="#000000" d="M 405.035156 354.476562 C 401.957031 354.476562 398.878906 354.550781 395.804688 354.703125 C 392.730469 354.851562 389.664062 355.078125 386.597656 355.378906 C 383.535156 355.683594 380.480469 356.058594 377.4375 356.511719 C 374.394531 356.960938 371.363281 357.488281 368.34375 358.089844 C 365.324219 358.6875 362.320312 359.363281 359.335938 360.109375 C 356.351562 360.859375 353.386719 361.679688 350.441406 362.574219 C 347.496094 363.464844 344.574219 364.429688 341.675781 365.46875 C 338.777344 366.503906 335.90625 367.613281 333.0625 368.789062 C 330.21875 369.96875 327.40625 371.214844 324.625 372.53125 C 321.839844 373.847656 319.09375 375.230469 316.378906 376.683594 C 313.664062 378.132812 310.988281 379.648438 308.347656 381.230469 C 305.707031 382.8125 303.105469 384.460938 300.546875 386.171875 C 297.988281 387.878906 295.472656 389.652344 293 391.484375 C 290.527344 393.320312 288.101562 395.210938 285.722656 397.164062 C 283.34375 399.117188 281.015625 401.125 278.734375 403.195312 C 276.453125 405.261719 274.226562 407.382812 272.046875 409.558594 C 269.871094 411.734375 267.75 413.964844 265.683594 416.246094 C 263.617188 418.523438 261.605469 420.855469 259.652344 423.234375 C 257.703125 425.613281 255.808594 428.039062 253.976562 430.511719 C 252.140625 432.984375 250.371094 435.5 248.660156 438.058594 C 246.949219 440.617188 245.304688 443.21875 243.722656 445.855469 C 242.140625 448.496094 240.621094 451.175781 239.171875 453.886719 C 237.71875 456.601562 236.335938 459.351562 235.019531 462.132812 C 233.703125 464.917969 232.457031 467.730469 231.28125 470.574219 C 230.101562 473.417969 228.996094 476.289062 227.957031 479.183594 C 226.921875 482.082031 225.957031 485.003906 225.0625 487.949219 C 224.167969 490.894531 223.347656 493.859375 222.601562 496.847656 C 221.851562 499.832031 221.179688 502.835938 220.578125 505.851562 C 219.976562 508.871094 219.453125 511.902344 219 514.949219 C 218.546875 517.992188 218.171875 521.046875 217.871094 524.109375 C 217.566406 527.171875 217.34375 530.242188 217.191406 533.316406 C 217.039062 536.390625 216.964844 539.464844 216.964844 542.542969 C 216.964844 545.621094 217.039062 548.699219 217.191406 551.773438 C 217.34375 554.847656 217.566406 557.914062 217.871094 560.976562 C 218.171875 564.039062 218.546875 567.09375 219 570.140625 C 219.453125 573.183594 219.976562 576.214844 220.578125 579.234375 C 221.179688 582.253906 221.851562 585.253906 222.601562 588.242188 C 223.347656 591.226562 224.167969 594.191406 225.0625 597.136719 C 225.957031 600.082031 226.921875 603.003906 227.957031 605.902344 C 228.996094 608.800781 230.101562 611.671875 231.28125 614.515625 C 232.457031 617.359375 233.703125 620.171875 235.019531 622.953125 C 236.335938 625.734375 237.71875 628.484375 239.171875 631.199219 C 240.621094 633.914062 242.140625 636.589844 243.722656 639.230469 C 245.304688 641.871094 246.949219 644.46875 248.660156 647.027344 C 250.371094 649.589844 252.140625 652.105469 253.976562 654.574219 C 255.808594 657.046875 257.703125 659.472656 259.652344 661.851562 C 261.605469 664.234375 263.617188 666.5625 265.683594 668.84375 C 267.75 671.125 269.871094 673.351562 272.046875 675.527344 C 274.226562 677.703125 276.453125 679.828125 278.734375 681.894531 C 281.015625 683.960938 283.34375 685.96875 285.722656 687.921875 C 288.101562 689.875 290.527344 691.769531 293 693.601562 C 295.472656 695.433594 297.988281 697.207031 300.546875 698.917969 C 303.105469 700.628906 305.707031 702.273438 308.347656 703.855469 C 310.988281 705.4375 313.664062 706.953125 316.378906 708.40625 C 319.09375 709.855469 321.839844 711.238281 324.625 712.554688 C 327.40625 713.871094 330.21875 715.117188 333.0625 716.296875 C 335.90625 717.472656 338.777344 718.582031 341.675781 719.617188 C 344.574219 720.65625 347.496094 721.621094 350.441406 722.515625 C 353.386719 723.40625 356.351562 724.230469 359.335938 724.976562 C 362.320312 725.722656 365.324219 726.398438 368.34375 727 C 371.363281 727.597656 374.394531 728.125 377.4375 728.578125 C 380.480469 729.027344 383.535156 729.40625 386.597656 729.707031 C 389.664062 730.007812 392.730469 730.234375 395.804688 730.386719 C 398.878906 730.535156 401.957031 730.613281 405.035156 730.613281 C 408.109375 730.613281 411.1875 730.535156 414.261719 730.386719 C 417.335938 730.234375 420.402344 730.007812 423.46875 729.707031 C 426.53125 729.40625 429.585938 729.027344 432.628906 728.578125 C 435.671875 728.125 438.703125 727.597656 441.722656 727 C 444.742188 726.398438 447.746094 725.722656 450.730469 724.976562 C 453.714844 724.230469 456.679688 723.40625 459.625 722.515625 C 462.570312 721.621094 465.492188 720.65625 468.390625 719.617188 C 471.289062 718.582031 474.160156 717.472656 477.003906 716.296875 C 479.847656 715.117188 482.660156 713.871094 485.441406 712.554688 C 488.226562 711.238281 490.972656 709.855469 493.6875 708.40625 C 496.402344 706.953125 499.078125 705.4375 501.71875 703.855469 C 504.359375 702.273438 506.960938 700.628906 509.519531 698.917969 C 512.078125 697.207031 514.59375 695.433594 517.066406 693.601562 C 519.539062 691.769531 521.964844 689.875 524.34375 687.921875 C 526.722656 685.96875 529.050781 683.960938 531.332031 681.894531 C 533.613281 679.828125 535.839844 677.703125 538.019531 675.527344 C 540.195312 673.351562 542.316406 671.125 544.382812 668.84375 C 546.449219 666.5625 548.460938 664.234375 550.414062 661.851562 C 552.363281 659.472656 554.257812 657.046875 556.089844 654.574219 C 557.925781 652.105469 559.695312 649.589844 561.40625 647.027344 C 563.117188 644.46875 564.761719 641.871094 566.34375 639.230469 C 567.925781 636.589844 569.445312 633.914062 570.894531 631.199219 C 572.347656 628.484375 573.730469 625.734375 575.046875 622.953125 C 576.363281 620.171875 577.609375 617.359375 578.785156 614.515625 C 579.964844 611.671875 581.070312 608.800781 582.109375 605.902344 C 583.144531 603.003906 584.109375 600.082031 585.003906 597.136719 C 585.898438 594.191406 586.71875 591.226562 587.464844 588.242188 C 588.214844 585.253906 588.886719 582.253906 589.488281 579.234375 C 590.089844 576.214844 590.613281 573.183594 591.066406 570.140625 C 591.519531 567.09375 591.894531 564.039062 592.195312 560.976562 C 592.5 557.914062 592.722656 554.847656 592.875 551.773438 C 593.027344 548.699219 593.101562 545.621094 593.101562 542.542969 C 593.097656 539.464844 593.019531 536.390625 592.867188 533.320312 C 592.710938 530.246094 592.484375 527.179688 592.179688 524.117188 C 591.875 521.054688 591.496094 518 591.039062 514.957031 C 590.585938 511.914062 590.058594 508.882812 589.457031 505.867188 C 588.851562 502.851562 588.175781 499.847656 587.425781 496.863281 C 586.675781 493.878906 585.855469 490.917969 584.960938 487.972656 C 584.0625 485.027344 583.097656 482.109375 582.058594 479.210938 C 581.019531 476.316406 579.910156 473.445312 578.734375 470.605469 C 577.554688 467.761719 576.304688 464.949219 574.988281 462.167969 C 573.671875 459.386719 572.289062 456.640625 570.835938 453.929688 C 569.386719 451.214844 567.867188 448.539062 566.285156 445.898438 C 564.703125 443.261719 563.054688 440.664062 561.34375 438.105469 C 559.636719 435.546875 557.863281 433.03125 556.03125 430.5625 C 554.195312 428.089844 552.304688 425.664062 550.351562 423.289062 C 548.398438 420.910156 546.390625 418.582031 544.324219 416.300781 C 542.257812 414.019531 540.136719 411.792969 537.960938 409.617188 C 535.785156 407.441406 533.554688 405.320312 531.277344 403.253906 C 528.996094 401.1875 526.667969 399.175781 524.289062 397.226562 C 521.910156 395.273438 519.488281 393.378906 517.015625 391.546875 C 514.542969 389.714844 512.03125 387.941406 509.472656 386.230469 C 506.914062 384.519531 504.316406 382.875 501.675781 381.292969 C 499.039062 379.710938 496.363281 378.191406 493.648438 376.742188 C 490.9375 375.289062 488.1875 373.90625 485.40625 372.585938 C 482.625 371.269531 479.816406 370.023438 476.972656 368.84375 C 474.132812 367.664062 471.261719 366.554688 468.367188 365.519531 C 465.46875 364.480469 462.546875 363.511719 459.605469 362.617188 C 456.660156 361.722656 453.695312 360.898438 450.710938 360.148438 C 447.726562 359.398438 444.726562 358.722656 441.710938 358.121094 C 438.691406 357.519531 435.664062 356.992188 432.617188 356.535156 C 429.574219 356.082031 426.523438 355.703125 423.460938 355.398438 C 420.398438 355.09375 417.332031 354.863281 414.257812 354.710938 C 411.183594 354.554688 408.109375 354.476562 405.035156 354.476562 Z M 405.035156 723.960938 C 402.0625 723.960938 399.097656 723.890625 396.132812 723.742188 C 393.164062 723.597656 390.207031 723.378906 387.25 723.089844 C 384.296875 722.796875 381.351562 722.433594 378.414062 722 C 375.476562 721.5625 372.550781 721.054688 369.640625 720.476562 C 366.726562 719.898438 363.832031 719.246094 360.953125 718.527344 C 358.070312 717.804688 355.210938 717.011719 352.371094 716.152344 C 349.527344 715.289062 346.710938 714.359375 343.914062 713.355469 C 341.121094 712.355469 338.351562 711.289062 335.605469 710.152344 C 332.863281 709.015625 330.152344 707.8125 327.464844 706.542969 C 324.78125 705.273438 322.132812 703.941406 319.511719 702.539062 C 316.894531 701.140625 314.3125 699.679688 311.765625 698.152344 C 309.21875 696.625 306.710938 695.039062 304.242188 693.386719 C 301.773438 691.738281 299.347656 690.027344 296.960938 688.261719 C 294.578125 686.492188 292.238281 684.664062 289.941406 682.78125 C 287.648438 680.898438 285.398438 678.960938 283.199219 676.964844 C 281 674.972656 278.851562 672.925781 276.75 670.824219 C 274.652344 668.726562 272.605469 666.578125 270.609375 664.378906 C 268.617188 662.175781 266.679688 659.929688 264.792969 657.632812 C 262.910156 655.339844 261.085938 653 259.316406 650.613281 C 257.546875 648.230469 255.839844 645.804688 254.1875 643.335938 C 252.539062 640.867188 250.953125 638.359375 249.425781 635.8125 C 247.898438 633.265625 246.4375 630.683594 245.035156 628.0625 C 243.636719 625.445312 242.300781 622.792969 241.03125 620.109375 C 239.761719 617.425781 238.558594 614.710938 237.425781 611.96875 C 236.289062 609.226562 235.21875 606.457031 234.21875 603.660156 C 233.21875 600.867188 232.289062 598.046875 231.425781 595.207031 C 230.5625 592.367188 229.773438 589.503906 229.050781 586.625 C 228.328125 583.746094 227.679688 580.847656 227.101562 577.9375 C 226.519531 575.023438 226.015625 572.101562 225.578125 569.164062 C 225.140625 566.226562 224.777344 563.28125 224.488281 560.324219 C 224.195312 557.371094 223.980469 554.410156 223.832031 551.445312 C 223.6875 548.480469 223.613281 545.511719 223.613281 542.542969 C 223.613281 539.574219 223.6875 536.605469 223.832031 533.640625 C 223.980469 530.675781 224.195312 527.714844 224.488281 524.761719 C 224.777344 521.808594 225.140625 518.859375 225.578125 515.925781 C 226.015625 512.988281 226.519531 510.0625 227.101562 507.152344 C 227.679688 504.238281 228.328125 501.34375 229.050781 498.460938 C 229.773438 495.582031 230.5625 492.722656 231.425781 489.878906 C 232.289062 487.039062 233.21875 484.222656 234.21875 481.425781 C 235.21875 478.628906 236.289062 475.859375 237.425781 473.117188 C 238.558594 470.375 239.761719 467.660156 241.03125 464.976562 C 242.300781 462.292969 243.636719 459.640625 245.035156 457.023438 C 246.4375 454.40625 247.898438 451.824219 249.425781 449.277344 C 250.953125 446.730469 252.539062 444.222656 254.1875 441.753906 C 255.839844 439.285156 257.546875 436.855469 259.316406 434.472656 C 261.085938 432.085938 262.910156 429.746094 264.792969 427.453125 C 266.679688 425.15625 268.617188 422.910156 270.609375 420.710938 C 272.605469 418.511719 274.652344 416.359375 276.75 414.261719 C 278.851562 412.160156 281 410.113281 283.199219 408.121094 C 285.398438 406.128906 287.648438 404.1875 289.941406 402.304688 C 292.238281 400.421875 294.578125 398.59375 296.960938 396.828125 C 299.347656 395.058594 301.773438 393.347656 304.242188 391.699219 C 306.710938 390.050781 309.21875 388.460938 311.765625 386.9375 C 314.3125 385.410156 316.894531 383.945312 319.511719 382.546875 C 322.132812 381.148438 324.78125 379.8125 327.464844 378.542969 C 330.152344 377.273438 332.863281 376.070312 335.605469 374.933594 C 338.351562 373.796875 341.121094 372.730469 343.914062 371.730469 C 346.710938 370.730469 349.527344 369.796875 352.371094 368.9375 C 355.210938 368.074219 358.070312 367.285156 360.953125 366.5625 C 363.832031 365.839844 366.726562 365.191406 369.640625 364.609375 C 372.550781 364.03125 375.476562 363.523438 378.414062 363.089844 C 381.351562 362.652344 384.296875 362.289062 387.25 362 C 390.207031 361.707031 393.164062 361.488281 396.132812 361.34375 C 399.097656 361.199219 402.0625 361.125 405.03125 361.125 C 408.003906 361.125 410.96875 361.199219 413.933594 361.34375 C 416.902344 361.488281 419.859375 361.707031 422.816406 362 C 425.769531 362.289062 428.714844 362.652344 431.652344 363.089844 C 434.589844 363.523438 437.515625 364.03125 440.425781 364.609375 C 443.339844 365.191406 446.234375 365.839844 449.113281 366.5625 C 451.996094 367.285156 454.855469 368.074219 457.695312 368.9375 C 460.539062 369.796875 463.355469 370.730469 466.152344 371.730469 C 468.945312 372.730469 471.714844 373.796875 474.460938 374.933594 C 477.203125 376.070312 479.914062 377.273438 482.601562 378.542969 C 485.285156 379.8125 487.933594 381.148438 490.554688 382.546875 C 493.171875 383.945312 495.753906 385.410156 498.300781 386.9375 C 500.847656 388.460938 503.355469 390.050781 505.824219 391.699219 C 508.292969 393.347656 510.71875 395.058594 513.105469 396.828125 C 515.488281 398.59375 517.828125 400.421875 520.125 402.304688 C 522.417969 404.1875 524.667969 406.128906 526.867188 408.121094 C 529.066406 410.113281 531.214844 412.160156 533.316406 414.261719 C 535.414062 416.359375 537.460938 418.511719 539.457031 420.710938 C 541.449219 422.910156 543.386719 425.15625 545.273438 427.453125 C 547.15625 429.746094 548.980469 432.085938 550.75 434.472656 C 552.519531 436.855469 554.226562 439.285156 555.878906 441.753906 C 557.527344 444.222656 559.113281 446.730469 560.640625 449.277344 C 562.167969 451.824219 563.628906 454.40625 565.03125 457.023438 C 566.429688 459.640625 567.765625 462.292969 569.035156 464.976562 C 570.304688 467.660156 571.507812 470.375 572.640625 473.117188 C 573.777344 475.859375 574.847656 478.628906 575.847656 481.425781 C 576.847656 484.222656 577.777344 487.039062 578.640625 489.878906 C 579.5 492.722656 580.292969 495.582031 581.015625 498.460938 C 581.738281 501.34375 582.386719 504.238281 582.964844 507.152344 C 583.546875 510.0625 584.050781 512.988281 584.488281 515.925781 C 584.925781 518.859375 585.289062 521.808594 585.578125 524.761719 C 585.871094 527.714844 586.085938 530.675781 586.234375 533.640625 C 586.378906 536.605469 586.453125 539.574219 586.453125 542.542969 C 586.449219 545.511719 586.371094 548.476562 586.222656 551.441406 C 586.074219 554.40625 585.855469 557.367188 585.558594 560.320312 C 585.265625 563.273438 584.902344 566.21875 584.460938 569.152344 C 584.023438 572.089844 583.515625 575.011719 582.933594 577.921875 C 582.351562 580.832031 581.699219 583.726562 580.976562 586.605469 C 580.253906 589.484375 579.457031 592.34375 578.59375 595.183594 C 577.730469 598.023438 576.800781 600.839844 575.796875 603.636719 C 574.796875 606.429688 573.726562 609.195312 572.589844 611.9375 C 571.453125 614.679688 570.246094 617.390625 568.976562 620.074219 C 567.707031 622.757812 566.371094 625.40625 564.972656 628.023438 C 563.570312 630.640625 562.109375 633.222656 560.582031 635.769531 C 559.054688 638.3125 557.464844 640.820312 555.816406 643.289062 C 554.167969 645.753906 552.457031 648.179688 550.6875 650.5625 C 548.921875 652.949219 547.09375 655.285156 545.210938 657.582031 C 543.328125 659.875 541.390625 662.121094 539.394531 664.320312 C 537.402344 666.519531 535.355469 668.667969 533.257812 670.769531 C 531.160156 672.867188 529.007812 674.914062 526.808594 676.90625 C 524.609375 678.898438 522.363281 680.839844 520.070312 682.722656 C 517.777344 684.605469 515.4375 686.429688 513.054688 688.199219 C 510.671875 689.96875 508.246094 691.675781 505.777344 693.328125 C 503.308594 694.976562 500.804688 696.566406 498.257812 698.089844 C 495.710938 699.617188 493.132812 701.082031 490.515625 702.480469 C 487.898438 703.882812 485.246094 705.21875 482.5625 706.488281 C 479.882812 707.757812 477.167969 708.960938 474.429688 710.097656 C 471.6875 711.238281 468.917969 712.304688 466.125 713.308594 C 463.332031 714.308594 460.515625 715.242188 457.675781 716.105469 C 454.835938 716.96875 451.976562 717.761719 449.097656 718.484375 C 446.21875 719.210938 443.324219 719.863281 440.414062 720.445312 C 437.5 721.023438 434.578125 721.535156 431.644531 721.972656 C 428.707031 722.410156 425.761719 722.777344 422.808594 723.070312 C 419.855469 723.363281 416.898438 723.585938 413.933594 723.734375 C 410.96875 723.882812 408 723.960938 405.035156 723.960938 Z M 405.035156 723.960938 " fill-opacity="1" fill-rule="nonzero"/><path fill="#000000" d="M 405.035156 301.238281 C 284.613281 301.238281 186.640625 399.214844 186.640625 519.617188 C 186.640625 640.019531 284.613281 738.011719 405.035156 738.011719 C 525.453125 738.011719 623.410156 640.035156 623.410156 519.617188 C 623.410156 399.199219 525.4375 301.238281 405.035156 301.238281 Z M 405.035156 731.359375 C 401.566406 731.359375 398.105469 731.277344 394.644531 731.105469 C 391.183594 730.9375 387.726562 730.683594 384.277344 730.34375 C 380.828125 730.003906 377.390625 729.578125 373.964844 729.070312 C 370.535156 728.5625 367.121094 727.972656 363.722656 727.296875 C 360.324219 726.621094 356.945312 725.859375 353.582031 725.019531 C 350.222656 724.175781 346.882812 723.253906 343.566406 722.246094 C 340.25 721.242188 336.960938 720.15625 333.695312 718.988281 C 330.433594 717.820312 327.203125 716.574219 324 715.25 C 320.796875 713.921875 317.632812 712.519531 314.5 711.039062 C 311.367188 709.554688 308.269531 708 305.214844 706.367188 C 302.15625 704.730469 299.144531 703.023438 296.171875 701.242188 C 293.199219 699.460938 290.273438 697.609375 287.390625 695.683594 C 284.507812 693.757812 281.675781 691.765625 278.890625 689.699219 C 276.109375 687.636719 273.378906 685.503906 270.699219 683.304688 C 268.019531 681.109375 265.394531 678.84375 262.828125 676.519531 C 260.261719 674.191406 257.75 671.800781 255.300781 669.351562 C 252.851562 666.902344 250.460938 664.394531 248.132812 661.824219 C 245.804688 659.257812 243.542969 656.636719 241.34375 653.957031 C 239.144531 651.277344 237.015625 648.546875 234.949219 645.761719 C 232.886719 642.980469 230.890625 640.148438 228.964844 637.265625 C 227.039062 634.386719 225.1875 631.457031 223.40625 628.484375 C 221.621094 625.515625 219.914062 622.5 218.28125 619.445312 C 216.648438 616.386719 215.089844 613.292969 213.609375 610.160156 C 212.125 607.027344 210.722656 603.859375 209.394531 600.660156 C 208.070312 597.457031 206.820312 594.226562 205.65625 590.960938 C 204.488281 587.699219 203.398438 584.410156 202.394531 581.09375 C 201.386719 577.777344 200.464844 574.441406 199.621094 571.078125 C 198.777344 567.714844 198.019531 564.335938 197.34375 560.9375 C 196.667969 557.539062 196.074219 554.125 195.566406 550.699219 C 195.058594 547.269531 194.632812 543.832031 194.292969 540.382812 C 193.953125 536.933594 193.699219 533.480469 193.527344 530.019531 C 193.359375 526.558594 193.273438 523.09375 193.273438 519.628906 C 193.273438 516.164062 193.359375 512.699219 193.527344 509.238281 C 193.695312 505.777344 193.953125 502.320312 194.292969 498.875 C 194.628906 495.425781 195.054688 491.984375 195.5625 488.558594 C 196.070312 485.128906 196.664062 481.71875 197.339844 478.316406 C 198.015625 474.917969 198.773438 471.539062 199.617188 468.175781 C 200.457031 464.816406 201.382812 461.476562 202.386719 458.160156 C 203.394531 454.84375 204.480469 451.554688 205.648438 448.292969 C 206.816406 445.027344 208.0625 441.796875 209.386719 438.59375 C 210.714844 435.394531 212.117188 432.226562 213.597656 429.09375 C 215.078125 425.960938 216.636719 422.867188 218.269531 419.808594 C 219.90625 416.753906 221.613281 413.738281 223.394531 410.765625 C 225.175781 407.792969 227.027344 404.867188 228.953125 401.984375 C 230.878906 399.105469 232.871094 396.273438 234.9375 393.488281 C 237 390.703125 239.132812 387.972656 241.332031 385.292969 C 243.527344 382.617188 245.792969 379.992188 248.117188 377.425781 C 250.445312 374.855469 252.835938 372.347656 255.285156 369.898438 C 257.734375 367.445312 260.246094 365.058594 262.8125 362.730469 C 265.378906 360.402344 268.003906 358.140625 270.683594 355.941406 C 273.359375 353.742188 276.089844 351.613281 278.875 349.546875 C 281.65625 347.484375 284.492188 345.488281 287.371094 343.5625 C 290.253906 341.636719 293.179688 339.785156 296.152344 338.003906 C 299.125 336.21875 302.140625 334.511719 305.195312 332.878906 C 308.25 331.246094 311.34375 329.6875 314.476562 328.207031 C 317.609375 326.722656 320.777344 325.320312 323.980469 323.992188 C 327.179688 322.667969 330.414062 321.421875 333.675781 320.253906 C 336.9375 319.085938 340.226562 318 343.542969 316.992188 C 346.859375 315.988281 350.199219 315.0625 353.5625 314.21875 C 356.921875 313.378906 360.300781 312.621094 363.703125 311.941406 C 367.101562 311.265625 370.511719 310.675781 373.941406 310.164062 C 377.371094 309.65625 380.808594 309.234375 384.257812 308.894531 C 387.703125 308.554688 391.160156 308.296875 394.621094 308.128906 C 398.082031 307.957031 401.546875 307.875 405.011719 307.875 C 408.476562 307.875 411.941406 307.957031 415.402344 308.128906 C 418.863281 308.296875 422.316406 308.550781 425.765625 308.890625 C 429.214844 309.230469 432.652344 309.65625 436.082031 310.164062 C 439.507812 310.671875 442.921875 311.265625 446.320312 311.941406 C 449.71875 312.617188 453.101562 313.375 456.460938 314.21875 C 459.824219 315.058594 463.164062 315.984375 466.476562 316.988281 C 469.792969 317.996094 473.085938 319.082031 476.347656 320.25 C 479.609375 321.417969 482.84375 322.664062 486.042969 323.988281 C 489.246094 325.316406 492.414062 326.71875 495.546875 328.199219 C 498.679688 329.683594 501.773438 331.242188 504.828125 332.875 C 507.886719 334.507812 510.898438 336.214844 513.871094 337.996094 C 516.84375 339.777344 519.769531 341.632812 522.652344 343.554688 C 525.535156 345.480469 528.367188 347.476562 531.148438 349.539062 C 533.933594 351.605469 536.664062 353.738281 539.34375 355.933594 C 542.023438 358.132812 544.644531 360.394531 547.214844 362.722656 C 549.78125 365.050781 552.289062 367.4375 554.738281 369.890625 C 557.191406 372.339844 559.578125 374.847656 561.90625 377.417969 C 564.234375 379.984375 566.496094 382.609375 568.695312 385.285156 C 570.894531 387.964844 573.023438 390.695312 575.089844 393.480469 C 577.152344 396.261719 579.148438 399.09375 581.074219 401.976562 C 583 404.859375 584.851562 407.785156 586.632812 410.757812 C 588.417969 413.730469 590.125 416.742188 591.757812 419.800781 C 593.390625 422.855469 594.949219 425.949219 596.429688 429.082031 C 597.910156 432.214844 599.316406 435.382812 600.640625 438.585938 C 601.96875 441.785156 603.214844 445.019531 604.382812 448.28125 C 605.550781 451.542969 606.636719 454.832031 607.640625 458.148438 C 608.648438 461.464844 609.574219 464.804688 610.414062 468.167969 C 611.257812 471.527344 612.015625 474.910156 612.691406 478.308594 C 613.367188 481.707031 613.960938 485.121094 614.46875 488.546875 C 614.976562 491.976562 615.402344 495.414062 615.742188 498.863281 C 616.082031 502.3125 616.335938 505.765625 616.503906 509.226562 C 616.675781 512.6875 616.761719 516.152344 616.761719 519.617188 C 616.757812 523.082031 616.667969 526.542969 616.496094 530.003906 C 616.320312 533.460938 616.0625 536.917969 615.71875 540.363281 C 615.378906 543.808594 614.949219 547.246094 614.4375 550.671875 C 613.925781 554.097656 613.332031 557.511719 612.652344 560.90625 C 611.976562 564.304688 611.214844 567.683594 610.371094 571.042969 C 609.527344 574.402344 608.597656 577.738281 607.589844 581.054688 C 606.582031 584.367188 605.496094 587.65625 604.328125 590.917969 C 603.15625 594.179688 601.910156 597.40625 600.582031 600.609375 C 599.253906 603.808594 597.847656 606.972656 596.367188 610.105469 C 594.882812 613.234375 593.324219 616.328125 591.691406 619.382812 C 590.058594 622.4375 588.351562 625.449219 586.566406 628.417969 C 584.785156 631.390625 582.933594 634.316406 581.007812 637.195312 C 579.082031 640.074219 577.085938 642.90625 575.023438 645.6875 C 572.960938 648.46875 570.828125 651.199219 568.628906 653.878906 C 566.433594 656.554688 564.171875 659.175781 561.84375 661.742188 C 559.515625 664.3125 557.128906 666.820312 554.679688 669.269531 C 552.230469 671.71875 549.722656 674.105469 547.15625 676.433594 C 544.589844 678.757812 541.96875 681.023438 539.289062 683.21875 C 536.613281 685.417969 533.882812 687.550781 531.101562 689.613281 C 528.320312 691.679688 525.488281 693.671875 522.609375 695.597656 C 519.730469 697.523438 516.804688 699.378906 513.832031 701.160156 C 510.863281 702.941406 507.851562 704.648438 504.796875 706.285156 C 501.742188 707.917969 498.648438 709.476562 495.519531 710.960938 C 492.386719 712.441406 489.222656 713.847656 486.023438 715.175781 C 482.824219 716.503906 479.59375 717.75 476.332031 718.921875 C 473.070312 720.089844 469.785156 721.179688 466.46875 722.1875 C 463.15625 723.195312 459.820312 724.121094 456.457031 724.964844 C 453.097656 725.808594 449.722656 726.570312 446.324219 727.25 C 442.925781 727.929688 439.515625 728.523438 436.089844 729.035156 C 432.664062 729.546875 429.226562 729.976562 425.78125 730.320312 C 422.332031 730.660156 418.878906 730.921875 415.417969 731.09375 C 411.960938 731.269531 408.496094 731.355469 405.035156 731.359375 Z M 405.035156 731.359375 " fill-opacity="1" fill-rule="nonzero"/><path fill="#000000" d="M 405.035156 248.003906 C 267.886719 248.003906 156.332031 359.578125 156.332031 496.707031 C 156.332031 633.835938 267.839844 745.394531 405.035156 745.394531 C 542.226562 745.394531 653.71875 633.835938 653.71875 496.707031 C 653.71875 359.578125 542.160156 248.003906 405.035156 248.003906 Z M 405.035156 738.742188 C 271.5625 738.742188 162.980469 630.160156 162.980469 496.707031 C 162.980469 363.253906 271.5625 254.65625 405.035156 254.65625 C 538.503906 254.65625 647.070312 363.238281 647.070312 496.707031 C 647.070312 630.175781 538.488281 738.742188 405.035156 738.742188 Z M 405.035156 738.742188 " fill-opacity="1" fill-rule="nonzero"/><path fill="#000000" d="M 405.035156 194.769531 C 251.214844 194.769531 126.023438 319.941406 126.023438 473.78125 C 126.023438 627.617188 251.214844 752.792969 405.035156 752.792969 C 558.851562 752.792969 684.027344 627.632812 684.027344 473.78125 C 684.027344 319.925781 558.871094 194.769531 405.035156 194.769531 Z M 405.035156 746.140625 C 254.855469 746.140625 132.671875 623.960938 132.671875 473.78125 C 132.671875 323.601562 254.855469 201.417969 405.035156 201.417969 C 555.210938 201.417969 677.378906 323.601562 677.378906 473.78125 C 677.378906 623.960938 555.210938 746.140625 405.035156 746.140625 Z M 405.035156 746.140625 " fill-opacity="1" fill-rule="nonzero"/><path fill="#000000" d="M 405.035156 141.484375 C 234.472656 141.484375 95.695312 280.308594 95.695312 450.871094 C 95.695312 621.433594 234.472656 760.105469 405.03125 760.105469 C 575.59375 760.105469 714.269531 621.347656 714.269531 450.871094 C 714.269531 280.390625 575.578125 141.484375 405.035156 141.484375 Z M 405.035156 753.472656 C 238.128906 753.472656 102.347656 617.691406 102.347656 450.886719 C 102.347656 284.082031 238.128906 148.132812 405.035156 148.132812 C 571.9375 148.132812 707.621094 283.898438 707.621094 450.804688 C 707.621094 617.707031 571.921875 753.539062 405.035156 753.539062 Z M 405.035156 753.472656 " fill-opacity="1" fill-rule="nonzero"/><path fill="#000000" d="M 405.035156 88.28125 C 217.746094 88.28125 65.386719 240.671875 65.386719 427.941406 C 65.386719 615.214844 217.746094 767.570312 405.03125 767.570312 C 592.320312 767.570312 744.660156 615.214844 744.660156 427.941406 C 744.660156 240.671875 592.304688 88.28125 405.035156 88.28125 Z M 405.035156 760.886719 C 221.421875 760.886719 72.039062 611.523438 72.039062 427.910156 C 72.039062 244.296875 221.421875 94.933594 405.035156 94.933594 C 588.648438 94.933594 738.011719 244.347656 738.011719 427.941406 C 738.011719 611.539062 588.714844 760.921875 405.035156 760.921875 Z M 405.035156 760.886719 " fill-opacity="1" fill-rule="nonzero"/><path fill="#000000" d="M 666.621094 143.429688 C 662.335938 139.164062 657.949219 135.007812 653.460938 130.957031 C 648.972656 126.90625 644.386719 122.96875 639.707031 119.144531 C 635.023438 115.316406 630.25 111.609375 625.386719 108.019531 C 620.523438 104.425781 615.574219 100.957031 610.542969 97.609375 C 605.507812 94.257812 600.394531 91.035156 595.203125 87.9375 C 590.011719 84.839844 584.75 81.871094 579.410156 79.03125 C 574.074219 76.191406 568.671875 73.484375 563.199219 70.90625 C 557.730469 68.332031 552.199219 65.894531 546.613281 63.589844 C 541.023438 61.285156 535.378906 59.121094 529.683594 57.09375 C 523.988281 55.066406 518.246094 53.179688 512.457031 51.433594 C 506.671875 49.6875 500.84375 48.082031 494.976562 46.625 C 489.109375 45.164062 483.210938 43.847656 477.277344 42.675781 C 471.347656 41.503906 465.390625 40.480469 459.410156 39.601562 C 453.429688 38.722656 447.429688 37.992188 441.410156 37.40625 C 435.394531 36.820312 429.367188 36.382812 423.328125 36.09375 C 417.289062 35.804688 411.246094 35.664062 405.199219 35.671875 C 399.15625 35.679688 393.113281 35.832031 387.074219 36.136719 C 381.035156 36.4375 375.007812 36.890625 368.992188 37.488281 C 362.976562 38.085938 356.980469 38.832031 351 39.726562 C 345.019531 40.617188 339.066406 41.65625 333.136719 42.839844 C 327.210938 44.027344 321.3125 45.355469 315.449219 46.828125 C 309.585938 48.300781 303.761719 49.917969 297.980469 51.679688 C 292.195312 53.4375 286.457031 55.335938 280.765625 57.378906 C 275.074219 59.417969 269.4375 61.597656 263.851562 63.914062 C 258.269531 66.230469 252.746094 68.683594 247.28125 71.269531 C 241.816406 73.855469 236.417969 76.578125 231.089844 79.429688 C 225.757812 82.28125 220.5 85.261719 215.316406 88.371094 C 210.132812 91.484375 205.027344 94.71875 200 98.078125 C 194.976562 101.4375 190.035156 104.917969 185.179688 108.523438 C 180.324219 112.125 175.558594 115.84375 170.886719 119.679688 C 166.214844 123.515625 161.636719 127.464844 157.160156 131.523438 C 152.679688 135.585938 148.300781 139.753906 144.027344 144.027344 C 139.753906 148.300781 135.585938 152.679688 131.523438 157.160156 C 127.464844 161.636719 123.515625 166.214844 119.679688 170.886719 C 115.84375 175.558594 112.125 180.324219 108.523438 185.179688 C 104.917969 190.035156 101.4375 194.976562 98.078125 200 C 94.71875 205.027344 91.484375 210.132812 88.371094 215.316406 C 85.261719 220.5 82.28125 225.757812 79.429688 231.089844 C 76.578125 236.417969 73.855469 241.816406 71.269531 247.28125 C 68.683594 252.746094 66.230469 258.269531 63.914062 263.851562 C 61.597656 269.4375 59.417969 275.074219 57.378906 280.765625 C 55.335938 286.457031 53.4375 292.195312 51.679688 297.980469 C 49.917969 303.761719 48.300781 309.585938 46.828125 315.449219 C 45.355469 321.3125 44.027344 327.210938 42.839844 333.136719 C 41.65625 339.066406 40.617188 345.019531 39.726562 351 C 38.832031 356.980469 38.085938 362.976562 37.488281 368.992188 C 36.890625 375.007812 36.4375 381.035156 36.136719 387.074219 C 35.832031 393.113281 35.679688 399.15625 35.671875 405.199219 C 35.664062 411.246094 35.804688 417.289062 36.09375 423.328125 C 36.382812 429.367188 36.820312 435.394531 37.40625 441.410156 C 37.992188 447.429688 38.722656 453.429688 39.601562 459.410156 C 40.480469 465.390625 41.503906 471.347656 42.675781 477.277344 C 43.847656 483.210938 45.164062 489.109375 46.625 494.976562 C 48.082031 500.84375 49.6875 506.671875 51.433594 512.457031 C 53.179688 518.246094 55.066406 523.988281 57.09375 529.683594 C 59.121094 535.378906 61.285156 541.023438 63.589844 546.613281 C 65.894531 552.199219 68.332031 557.730469 70.90625 563.199219 C 73.484375 568.671875 76.191406 574.074219 79.03125 579.410156 C 81.871094 584.75 84.839844 590.011719 87.9375 595.203125 C 91.035156 600.394531 94.257812 605.507812 97.609375 610.542969 C 100.957031 615.574219 104.425781 620.523438 108.019531 625.386719 C 111.609375 630.25 115.316406 635.023438 119.144531 639.707031 C 122.96875 644.386719 126.90625 648.972656 130.957031 653.460938 C 135.007812 657.949219 139.164062 662.335938 143.429688 666.621094 C 147.714844 670.886719 152.101562 675.042969 156.589844 679.09375 C 161.078125 683.144531 165.664062 687.082031 170.34375 690.90625 C 175.027344 694.730469 179.796875 698.441406 184.664062 702.03125 C 189.527344 705.621094 194.472656 709.09375 199.507812 712.441406 C 204.542969 715.789062 209.652344 719.015625 214.84375 722.113281 C 220.035156 725.210938 225.300781 728.179688 230.636719 731.019531 C 235.976562 733.859375 241.378906 736.566406 246.847656 739.140625 C 252.320312 741.71875 257.847656 744.15625 263.4375 746.460938 C 269.027344 748.765625 274.671875 750.929688 280.367188 752.957031 C 286.0625 754.984375 291.804688 756.871094 297.589844 758.617188 C 303.378906 760.363281 309.207031 761.964844 315.074219 763.425781 C 320.941406 764.886719 326.839844 766.203125 332.769531 767.375 C 338.703125 768.542969 344.660156 769.570312 350.640625 770.449219 C 356.621094 771.328125 362.621094 772.058594 368.636719 772.644531 C 374.65625 773.230469 380.683594 773.664062 386.722656 773.957031 C 392.761719 774.246094 398.804688 774.386719 404.847656 774.378906 C 410.894531 774.371094 416.9375 774.214844 422.976562 773.914062 C 429.011719 773.609375 435.039062 773.160156 441.054688 772.5625 C 447.074219 771.960938 453.070312 771.214844 459.050781 770.324219 C 465.027344 769.429688 470.984375 768.394531 476.910156 767.207031 C 482.839844 766.023438 488.734375 764.695312 494.597656 763.222656 C 500.460938 761.746094 506.285156 760.132812 512.070312 758.371094 C 517.855469 756.613281 523.59375 754.714844 529.285156 752.671875 C 534.976562 750.632812 540.613281 748.453125 546.195312 746.136719 C 551.78125 743.820312 557.304688 741.367188 562.769531 738.78125 C 568.234375 736.191406 573.628906 733.472656 578.960938 730.621094 C 584.292969 727.769531 589.546875 724.785156 594.734375 721.675781 C 599.917969 718.566406 605.023438 715.332031 610.046875 711.972656 C 615.074219 708.613281 620.015625 705.128906 624.871094 701.527344 C 629.726562 697.925781 634.488281 694.207031 639.164062 690.371094 C 643.835938 686.535156 648.410156 682.585938 652.890625 678.523438 C 657.371094 674.464844 661.746094 670.296875 666.023438 666.023438 C 670.296875 661.746094 674.464844 657.371094 678.523438 652.890625 C 682.585938 648.410156 686.535156 643.835938 690.371094 639.164062 C 694.207031 634.488281 697.925781 629.726562 701.527344 624.871094 C 705.128906 620.015625 708.613281 615.074219 711.972656 610.046875 C 715.332031 605.023438 718.566406 599.917969 721.675781 594.734375 C 724.785156 589.546875 727.769531 584.292969 730.621094 578.960938 C 733.472656 573.628906 736.191406 568.234375 738.78125 562.769531 C 741.367188 557.304688 743.820312 551.78125 746.136719 546.195312 C 748.453125 540.613281 750.632812 534.976562 752.671875 529.285156 C 754.714844 523.59375 756.613281 517.855469 758.371094 512.070312 C 760.132812 506.285156 761.746094 500.464844 763.222656 494.597656 C 764.695312 488.734375 766.023438 482.839844 767.207031 476.910156 C 768.394531 470.984375 769.429688 465.027344 770.324219 459.050781 C 771.214844 453.070312 771.960938 447.074219 772.5625 441.054688 C 773.160156 435.039062 773.609375 429.011719 773.914062 422.976562 C 774.214844 416.9375 774.371094 410.894531 774.378906 404.847656 C 774.386719 398.804688 774.246094 392.761719 773.957031 386.722656 C 773.664062 380.683594 773.230469 374.65625 772.644531 368.636719 C 772.058594 362.621094 771.328125 356.621094 770.449219 350.640625 C 769.570312 344.660156 768.542969 338.703125 767.375 332.769531 C 766.203125 326.839844 764.886719 320.941406 763.425781 315.074219 C 761.964844 309.207031 760.363281 303.378906 758.617188 297.589844 C 756.871094 291.804688 754.984375 286.0625 752.957031 280.367188 C 750.929688 274.671875 748.765625 269.027344 746.460938 263.4375 C 744.15625 257.847656 741.71875 252.320312 739.140625 246.847656 C 736.566406 241.378906 733.859375 235.976562 731.019531 230.636719 C 728.179688 225.300781 725.210938 220.035156 722.113281 214.84375 C 719.015625 209.652344 715.789062 204.542969 712.441406 199.507812 C 709.09375 194.472656 705.621094 189.527344 702.03125 184.664062 C 698.441406 179.796875 694.730469 175.027344 690.90625 170.34375 C 687.082031 165.664062 683.144531 161.078125 679.09375 156.589844 C 675.042969 152.101562 670.886719 147.714844 666.621094 143.429688 Z M 661.867188 661.867188 C 657.640625 665.96875 653.316406 669.964844 648.898438 673.859375 C 644.476562 677.75 639.964844 681.53125 635.359375 685.203125 C 630.753906 688.878906 626.066406 692.4375 621.289062 695.878906 C 616.511719 699.324219 611.652344 702.652344 606.714844 705.859375 C 601.773438 709.066406 596.761719 712.15625 591.671875 715.117188 C 586.582031 718.082031 581.421875 720.921875 576.195312 723.636719 C 570.96875 726.351562 565.679688 728.933594 560.324219 731.390625 C 554.972656 733.847656 549.5625 736.171875 544.097656 738.367188 C 538.632812 740.558594 533.117188 742.617188 527.550781 744.542969 C 521.984375 746.46875 516.375 748.257812 510.71875 749.910156 C 505.066406 751.558594 499.378906 753.074219 493.652344 754.449219 C 487.925781 755.824219 482.167969 757.058594 476.378906 758.15625 C 470.59375 759.25 464.785156 760.207031 458.949219 761.019531 C 453.117188 761.832031 447.269531 762.503906 441.402344 763.03125 C 435.535156 763.558594 429.660156 763.945312 423.777344 764.1875 C 417.890625 764.429688 412.003906 764.527344 406.113281 764.484375 C 400.226562 764.441406 394.339844 764.253906 388.460938 763.925781 C 382.578125 763.59375 376.710938 763.121094 370.855469 762.507812 C 364.996094 761.890625 359.15625 761.136719 353.335938 760.234375 C 347.515625 759.335938 341.722656 758.296875 335.949219 757.117188 C 330.179688 755.933594 324.441406 754.613281 318.738281 753.152344 C 313.03125 751.691406 307.363281 750.09375 301.738281 748.359375 C 296.109375 746.625 290.527344 744.753906 284.988281 742.746094 C 279.453125 740.738281 273.96875 738.597656 268.535156 736.324219 C 263.101562 734.050781 257.726562 731.644531 252.410156 729.109375 C 247.09375 726.574219 241.84375 723.910156 236.65625 721.121094 C 231.472656 718.328125 226.355469 715.414062 221.3125 712.375 C 216.265625 709.335938 211.296875 706.175781 206.40625 702.894531 C 201.515625 699.613281 196.707031 696.214844 191.984375 692.699219 C 187.257812 689.183594 182.621094 685.554688 178.070312 681.816406 C 173.519531 678.074219 169.066406 674.226562 164.703125 670.269531 C 160.339844 666.3125 156.078125 662.25 151.914062 658.085938 C 147.75 653.921875 143.6875 649.660156 139.730469 645.296875 C 135.773438 640.933594 131.925781 636.480469 128.183594 631.929688 C 124.445312 627.378906 120.816406 622.742188 117.300781 618.015625 C 113.785156 613.292969 110.386719 608.484375 107.105469 603.59375 C 103.824219 598.703125 100.664062 593.734375 97.625 588.6875 C 94.585938 583.644531 91.671875 578.527344 88.878906 573.34375 C 86.089844 568.15625 83.425781 562.90625 80.890625 557.589844 C 78.355469 552.273438 75.949219 546.898438 73.675781 541.464844 C 71.402344 536.03125 69.261719 530.546875 67.253906 525.011719 C 65.246094 519.472656 63.375 513.890625 61.640625 508.261719 C 59.90625 502.636719 58.304688 496.96875 56.847656 491.261719 C 55.386719 485.554688 54.066406 479.820312 52.882812 474.046875 C 51.703125 468.277344 50.664062 462.484375 49.765625 456.664062 C 48.863281 450.84375 48.109375 445.003906 47.492188 439.144531 C 46.878906 433.289062 46.40625 427.421875 46.074219 421.539062 C 45.746094 415.660156 45.558594 409.773438 45.515625 403.886719 C 45.472656 397.996094 45.570312 392.109375 45.8125 386.222656 C 46.054688 380.339844 46.441406 374.464844 46.96875 368.597656 C 47.496094 362.730469 48.167969 356.882812 48.980469 351.050781 C 49.792969 345.214844 50.75 339.40625 51.84375 333.621094 C 52.9375 327.832031 54.175781 322.074219 55.550781 316.347656 C 56.925781 310.621094 58.4375 304.933594 60.089844 299.277344 C 61.742188 293.625 63.53125 288.015625 65.457031 282.449219 C 67.382812 276.882812 69.441406 271.367188 71.632812 265.902344 C 73.828125 260.4375 76.152344 255.027344 78.609375 249.671875 C 81.066406 244.320312 83.648438 239.03125 86.363281 233.804688 C 89.078125 228.578125 91.917969 223.417969 94.878906 218.328125 C 97.84375 213.238281 100.929688 208.226562 104.140625 203.285156 C 107.347656 198.347656 110.675781 193.488281 114.121094 188.710938 C 117.5625 183.933594 121.121094 179.246094 124.796875 174.640625 C 128.46875 170.035156 132.25 165.523438 136.140625 161.101562 C 140.035156 156.683594 144.03125 152.359375 148.132812 148.132812 C 152.359375 144.03125 156.683594 140.035156 161.101562 136.140625 C 165.523438 132.25 170.035156 128.46875 174.640625 124.796875 C 179.246094 121.121094 183.933594 117.5625 188.710938 114.121094 C 193.488281 110.675781 198.347656 107.347656 203.285156 104.140625 C 208.226562 100.929688 213.238281 97.84375 218.328125 94.878906 C 223.417969 91.917969 228.578125 89.078125 233.804688 86.363281 C 239.03125 83.648438 244.320312 81.066406 249.671875 78.609375 C 255.027344 76.152344 260.4375 73.828125 265.902344 71.632812 C 271.367188 69.441406 276.882812 67.382812 282.449219 65.457031 C 288.015625 63.53125 293.625 61.742188 299.28125 60.089844 C 304.933594 58.4375 310.621094 56.925781 316.347656 55.550781 C 322.074219 54.175781 327.832031 52.9375 333.621094 51.84375 C 339.40625 50.75 345.214844 49.792969 351.050781 48.980469 C 356.882812 48.167969 362.730469 47.496094 368.597656 46.96875 C 374.464844 46.441406 380.339844 46.054688 386.222656 45.8125 C 392.109375 45.570312 397.996094 45.472656 403.886719 45.515625 C 409.773438 45.558594 415.660156 45.746094 421.539062 46.074219 C 427.421875 46.40625 433.289062 46.878906 439.144531 47.492188 C 445.003906 48.109375 450.84375 48.863281 456.664062 49.765625 C 462.484375 50.664062 468.277344 51.703125 474.050781 52.882812 C 479.820312 54.066406 485.554688 55.386719 491.261719 56.847656 C 496.96875 58.304688 502.636719 59.90625 508.261719 61.640625 C 513.890625 63.375 519.472656 65.246094 525.011719 67.253906 C 530.546875 69.261719 536.03125 71.402344 541.464844 73.675781 C 546.898438 75.949219 552.273438 78.355469 557.589844 80.890625 C 562.90625 83.425781 568.15625 86.089844 573.34375 88.878906 C 578.527344 91.671875 583.644531 94.585938 588.6875 97.625 C 593.734375 100.664062 598.703125 103.824219 603.59375 107.105469 C 608.484375 110.386719 613.292969 113.785156 618.015625 117.300781 C 622.742188 120.816406 627.378906 124.445312 631.929688 128.183594 C 636.480469 131.925781 640.933594 135.773438 645.296875 139.730469 C 649.660156 143.6875 653.921875 147.75 658.085938 151.914062 C 662.25 156.078125 666.3125 160.339844 670.269531 164.703125 C 674.226562 169.066406 678.074219 173.519531 681.816406 178.070312 C 685.554688 182.621094 689.183594 187.257812 692.699219 191.984375 C 696.214844 196.707031 699.613281 201.515625 702.894531 206.40625 C 706.175781 211.296875 709.335938 216.265625 712.375 221.3125 C 715.414062 226.355469 718.328125 231.472656 721.121094 236.65625 C 723.910156 241.84375 726.574219 247.09375 729.109375 252.410156 C 731.644531 257.726562 734.050781 263.101562 736.324219 268.535156 C 738.597656 273.96875 740.738281 279.453125 742.746094 284.988281 C 744.753906 290.527344 746.625 296.109375 748.359375 301.738281 C 750.09375 307.363281 751.695312 313.03125 753.152344 318.738281 C 754.613281 324.445312 755.933594 330.179688 757.117188 335.949219 C 758.296875 341.722656 759.335938 347.515625 760.234375 353.335938 C 761.136719 359.15625 761.890625 364.996094 762.507812 370.855469 C 763.121094 376.710938 763.59375 382.578125 763.925781 388.460938 C 764.253906 394.339844 764.441406 400.226562 764.484375 406.113281 C 764.527344 412.003906 764.429688 417.890625 764.1875 423.777344 C 763.945312 429.660156 763.558594 435.535156 763.03125 441.402344 C 762.503906 447.269531 761.832031 453.117188 761.019531 458.949219 C 760.207031 464.785156 759.25 470.59375 758.15625 476.378906 C 757.0625 482.167969 755.824219 487.925781 754.449219 493.652344 C 753.074219 499.378906 751.5625 505.066406 749.910156 510.71875 C 748.257812 516.375 746.46875 521.984375 744.542969 527.550781 C 742.617188 533.117188 740.558594 538.632812 738.367188 544.097656 C 736.171875 549.5625 733.847656 554.972656 731.390625 560.324219 C 728.933594 565.679688 726.351562 570.96875 723.636719 576.195312 C 720.921875 581.421875 718.082031 586.582031 715.121094 591.671875 C 712.15625 596.761719 709.066406 601.773438 705.859375 606.714844 C 702.652344 611.652344 699.324219 616.511719 695.878906 621.289062 C 692.4375 626.066406 688.878906 630.753906 685.203125 635.359375 C 681.53125 639.964844 677.75 644.476562 673.859375 648.898438 C 669.964844 653.316406 665.96875 657.640625 661.867188 661.867188 Z M 661.867188 661.867188 " fill-opacity="1" fill-rule="nonzero"/></svg>