<svg xmlns="http://www.w3.org/2000/svg" xmlns:xlink="http://www.w3.org/1999/xlink" zoomAndPan="magnify" preserveAspectRatio="xMidYMid meet" version="1.0" viewBox="84.13 10.72 650.37 797.74"><path fill="#231f20" d="M 734.257812 330.832031 C 733.402344 314.320312 729.132812 298.375 721.441406 283.855469 C 717.453125 267.34375 709.476562 251.683594 698.371094 238.871094 C 698.085938 238.015625 697.515625 236.878906 697.230469 236.023438 C 690.964844 221.789062 682.132812 208.976562 670.742188 198.441406 C 652.796875 172.25 623.742188 155.738281 591.84375 153.742188 C 587.855469 153.457031 583.867188 153.175781 580.164062 152.605469 C 567.917969 138.085938 558.234375 124.417969 549.117188 111.890625 C 523.199219 76.019531 504.683594 50.109375 456.546875 41.566406 C 434.332031 37.296875 412.398438 31.316406 391.320312 23.347656 C 350.589844 8.824219 325.8125 0 250.617188 36.15625 C 238.652344 42.421875 227.542969 50.679688 218.144531 60.359375 C 211.878906 64.34375 205.042969 68.613281 197.921875 73.738281 C 187.097656 81.425781 175.988281 93.386719 166.019531 108.757812 C 158.046875 115.878906 149.5 124.132812 140.386719 133.8125 C 132.125 143.210938 125.289062 153.742188 120.164062 165.132812 C 116.746094 169.6875 113.042969 174.8125 109.054688 180.222656 C 84.273438 214.957031 73.734375 294.390625 97.375 356.742188 C 113.613281 399.449219 142.949219 426.78125 182.257812 435.890625 C 207.605469 441.585938 231.246094 452.6875 251.46875 468.917969 C 248.90625 512.761719 239.507812 560.59375 227.828125 610.703125 C 213.585938 672.769531 244.066406 740.246094 301.601562 775.265625 C 320.96875 787.222656 343.1875 794.339844 365.972656 795.480469 C 389.898438 805.445312 416.386719 808.578125 442.023438 803.738281 C 445.441406 804.589844 448.859375 805.160156 452.277344 806.015625 C 473.351562 810 495 809.144531 515.507812 803.167969 C 547.980469 803.453125 577.03125 793.203125 599.816406 774.695312 C 618.046875 759.320312 632.003906 739.390625 640.265625 716.898438 C 661.058594 661.382812 687.832031 562.300781 700.363281 465.214844 C 700.648438 462.9375 700.933594 460.660156 701.21875 458.097656 C 722.296875 414.253906 736.535156 369.839844 734.257812 330.832031 Z M 703.210938 440.160156 L 703.496094 438.453125 C 718.59375 394.894531 728.5625 349.910156 726 310.902344 C 727.707031 317.738281 728.5625 324.570312 729.132812 331.402344 C 730.554688 363.859375 720.585938 401.15625 703.210938 440.160156 Z M 514.367188 796.902344 L 510.382812 796.902344 C 498.703125 796.332031 486.742188 794.625 475.347656 791.492188 C 491.296875 782.953125 505.539062 771.5625 516.933594 757.613281 C 555.382812 712.628906 614.058594 628.070312 658.492188 540.949219 C 665.613281 527.28125 672.734375 512.191406 679.570312 496.820312 L 680.996094 494.257812 C 653.652344 593.90625 611.78125 689.851562 587.285156 734.835938 C 570.480469 766.4375 544.847656 787.507812 514.367188 796.902344 Z M 441.738281 797.472656 C 432.054688 794.910156 422.9375 791.777344 413.824219 787.507812 C 420.089844 785.230469 426.355469 782.382812 432.335938 778.964844 C 440.882812 784.375 449.996094 788.648438 459.679688 792.347656 C 453.984375 794.339844 448.003906 796.050781 441.738281 797.472656 Z M 366.828125 789.5 C 307.296875 765.015625 268.558594 705.511719 272.261719 644.867188 C 275.964844 588.210938 277.960938 534.96875 271.410156 487.707031 C 274.257812 490.839844 276.820312 493.6875 279.667969 497.105469 C 303.023438 547.210938 314.417969 610.417969 324.101562 678.75 C 330.652344 723.734375 359.136719 763.023438 399.011719 786.367188 C 388.757812 788.648438 377.648438 789.785156 366.828125 789.5 Z M 124.152344 168.832031 C 131.273438 159.4375 139.246094 150.328125 147.792969 141.785156 C 134.972656 170.257812 126.714844 203.566406 127.285156 236.023438 C 128.136719 281.578125 146.367188 317.167969 180.546875 339.089844 C 213.304688 359.875 238.082031 390.90625 251.183594 427.351562 C 251.46875 432.191406 251.753906 437.03125 251.753906 442.15625 C 232.101562 419.664062 207.320312 402.296875 179.40625 391.761719 C 133.835938 374.394531 116.460938 335.386719 109.625 305.777344 C 100.792969 267.058594 105.636719 209.546875 124.152344 168.832031 Z M 260.015625 45.839844 C 288.214844 35.875 307.867188 39.289062 334.070312 44.128906 C 356.574219 48.683594 379.359375 51.246094 402.144531 51.816406 C 448.574219 52.671875 469.367188 73.457031 500.695312 104.773438 C 515.507812 119.863281 530.890625 134.382812 547.125 148.050781 C 541.710938 147.195312 536.871094 146.339844 531.742188 145.203125 C 494.714844 129.542969 468.511719 112.460938 445.726562 97.371094 C 408.695312 73.171875 382.207031 55.804688 334.070312 64.914062 C 311.855469 68.898438 289.351562 71.175781 266.566406 71.175781 C 244.347656 71.746094 226.976562 72.03125 207.320312 80.289062 C 211.59375 74.878906 215.867188 69.753906 220.421875 64.914062 C 233.242188 57.511719 246.34375 50.964844 260.015625 45.839844 Z M 666.46875 202.429688 C 667.609375 204.136719 668.746094 205.84375 669.886719 207.554688 C 672.449219 211.539062 674.730469 215.808594 677.007812 220.082031 C 672.164062 216.949219 667.039062 214.101562 661.625 211.824219 C 643.96875 203.851562 626.878906 195.027344 610.355469 185.347656 C 606.652344 181.644531 602.953125 177.945312 599.535156 174.527344 C 606.371094 176.234375 613.488281 178.226562 620.894531 179.652344 C 637.984375 183.070312 653.652344 191.039062 666.46875 202.429688 Z M 716.882812 288.980469 C 724.574219 324.285156 719.164062 367.277344 705.492188 413.113281 C 713.464844 365.851562 716.882812 316.882812 708.910156 275.316406 C 711.472656 278.730469 713.75 282.433594 716.027344 286.132812 C 716.3125 286.988281 716.597656 287.84375 716.882812 288.980469 Z M 267.421875 462.652344 C 264.855469 450.125 261.15625 437.882812 256.882812 425.925781 C 253.464844 373.824219 236.375 327.984375 195.074219 290.972656 C 158.898438 258.515625 156.335938 215.808594 160.894531 185.632812 C 164.027344 164.5625 172.570312 139.792969 184.820312 116.445312 C 197.921875 111.035156 211.308594 109.042969 226.976562 106.480469 C 249.761719 103.351562 271.976562 97.941406 293.625 90.824219 C 337.773438 76.019531 364.261719 88.542969 404.140625 107.335938 C 433.761719 121.570312 471.929688 139.507812 530.035156 150.894531 C 541.996094 156.019531 555.101562 160.859375 569.339844 165.417969 C 580.449219 173.386719 592.699219 181.644531 606.652344 189.617188 C 630.011719 212.394531 655.644531 232.609375 682.988281 250.828125 C 685.550781 252.539062 687.832031 254.246094 690.109375 255.953125 C 702.355469 300.367188 703.78125 355.886719 699.507812 413.113281 C 697.230469 426.496094 694.382812 440.160156 691.25 453.828125 C 686.121094 467.492188 680.140625 481.160156 674.160156 494.824219 C 609.21875 604.722656 502.976562 714.621094 452.84375 757.328125 C 446.578125 762.738281 439.457031 767.578125 432.335938 771.847656 C 403 753.628906 381.351562 725.15625 371.382812 692.128906 C 348.597656 613.550781 325.242188 542.371094 284.226562 493.117188 C 279.667969 482.867188 273.972656 472.617188 267.421875 462.652344 Z M 258.589844 450.125 L 257.738281 448.988281 C 257.738281 448.132812 257.738281 447.28125 257.738281 446.710938 C 257.738281 447.847656 258.019531 448.988281 258.589844 450.125 Z M 191.085938 295.246094 C 226.121094 326.847656 243.210938 365 249.191406 408.273438 C 234.664062 377.808594 212.164062 352.1875 183.679688 334.25 C 142.664062 307.773438 133.550781 266.203125 132.980469 235.738281 C 132.410156 205.277344 142.09375 165.132812 158.898438 131.820312 C 164.027344 127.550781 169.722656 123.847656 175.707031 120.71875 C 165.453125 140.929688 158.617188 162.570312 155.199219 184.777344 C 148.644531 230.046875 161.179688 268.195312 191.085938 295.246094 Z M 687.546875 247.128906 L 686.40625 246.273438 C 665.898438 232.609375 646.246094 217.804688 627.730469 201.574219 C 637.414062 206.699219 647.953125 211.824219 659.347656 216.949219 C 667.324219 220.648438 674.730469 225.207031 681.566406 230.613281 C 683.84375 236.023438 685.835938 241.433594 687.546875 247.128906 Z M 707.484375 346.207031 C 707.199219 318.019531 703.78125 289.835938 697.800781 262.21875 C 698.9375 263.355469 700.363281 264.78125 701.503906 265.917969 C 707.199219 289.835938 708.910156 317.167969 707.484375 346.207031 Z M 695.238281 252.824219 C 693.8125 248.265625 692.386719 243.710938 690.964844 239.15625 C 691.820312 240.011719 692.671875 241.148438 693.527344 242.003906 C 695.519531 246.273438 696.945312 250.828125 698.371094 255.667969 C 697.515625 254.53125 696.375 253.675781 695.238281 252.824219 Z M 686.121094 227.199219 Z M 590.988281 173.386719 L 587.570312 171.109375 L 589.5625 171.679688 Z M 572.191406 160.292969 L 567.347656 156.589844 L 577.601562 157.730469 L 582.445312 163.421875 C 578.742188 162.570312 575.324219 161.429688 572.191406 160.292969 Z M 267.136719 77.15625 C 290.207031 77.15625 312.992188 74.878906 335.496094 70.894531 C 381.351562 62.351562 405.847656 78.296875 442.875 102.496094 C 463.097656 116.160156 484.460938 128.6875 506.109375 139.792969 C 463.097656 128.972656 432.90625 114.738281 406.703125 102.210938 C 366.828125 83.421875 338.058594 69.753906 291.917969 85.414062 C 270.554688 92.53125 248.335938 97.65625 225.835938 100.789062 C 213.304688 102.496094 201.054688 105.058594 188.808594 108.757812 C 192.226562 102.496094 196.214844 96.515625 200.199219 90.539062 C 223.273438 78.011719 242.355469 77.726562 267.136719 77.15625 Z M 180.261719 112.175781 C 175.136719 114.453125 170.007812 117.015625 165.453125 120.148438 C 166.875 117.585938 168.300781 115.308594 170.007812 112.746094 C 175.988281 107.621094 182.257812 102.496094 188.523438 97.941406 C 185.675781 102.496094 182.824219 107.335938 180.261719 112.175781 Z M 262.292969 465.214844 C 262.863281 467.210938 263.148438 469.203125 263.433594 471.480469 C 261.4375 469.769531 259.445312 468.0625 257.167969 466.355469 C 257.167969 463.792969 257.453125 461.230469 257.453125 458.667969 C 258.875 460.660156 260.585938 462.9375 262.292969 465.214844 Z M 330.082031 677.609375 C 321.539062 618.105469 311.855469 562.585938 294.195312 515.894531 C 326.097656 562.871094 346.605469 625.507812 366.257812 694.121094 C 376.226562 727.433594 397.875 756.472656 426.925781 775.550781 C 420.660156 778.964844 413.824219 781.8125 406.988281 784.089844 C 365.972656 761.882812 336.351562 722.59375 330.082031 677.609375 Z M 438.320312 775.550781 C 444.871094 771.5625 451.136719 767.007812 457.117188 761.882812 C 502.121094 723.449219 573.613281 649.421875 631.433594 570.558594 C 638.269531 561.164062 645.675781 550.914062 652.796875 540.378906 C 605.800781 631.203125 546.269531 715.191406 513.230469 753.914062 C 500.980469 768.71875 485.316406 780.675781 467.941406 788.929688 C 457.402344 785.800781 447.433594 781.246094 438.320312 775.550781 Z M 709.476562 266.488281 C 708.625 265.351562 707.484375 264.210938 706.628906 263.070312 C 706.34375 261.363281 705.773438 259.65625 705.207031 257.949219 C 706.628906 260.792969 708.054688 263.640625 709.476562 266.488281 Z M 591.273438 159.152344 C 613.488281 160.578125 634.566406 169.6875 650.804688 184.492188 C 641.6875 179.652344 632.003906 176.234375 622.035156 173.957031 C 611.496094 171.679688 601.527344 169.117188 592.128906 166.269531 C 589.847656 163.707031 587.570312 161.144531 585.292969 158.582031 Z M 253.179688 41 C 279.667969 28.1875 299.605469 21.351562 316.125 18.222656 C 345.464844 12.8125 364.261719 19.359375 389.613281 28.472656 C 410.976562 36.726562 433.191406 42.707031 455.695312 46.976562 C 501.550781 55.234375 518.640625 78.863281 544.5625 115.023438 C 552.535156 126.125 561.367188 138.367188 572.191406 151.464844 C 567.347656 150.894531 562.789062 150.328125 558.234375 149.757812 C 539.433594 134.667969 521.488281 118.15625 504.683594 100.789062 C 473.636719 69.46875 451.136719 46.976562 402.144531 46.121094 C 379.644531 45.554688 357.140625 42.992188 334.925781 38.4375 C 303.59375 32.742188 281.378906 28.472656 244.347656 45.839844 C 247.199219 44.128906 250.046875 42.421875 253.179688 41 Z M 201.339844 78.296875 L 203.617188 76.585938 C 201.054688 79.71875 198.777344 82.851562 196.496094 86.265625 C 191.941406 88.828125 187.667969 91.675781 183.679688 94.523438 C 188.808594 88.261719 194.789062 82.851562 201.339844 78.296875 Z M 155.480469 126.125 L 154.34375 128.121094 C 152.347656 129.542969 150.640625 131.25 148.644531 133.246094 C 150.925781 130.683594 153.203125 128.402344 155.480469 126.125 Z M 183.394531 430.195312 C 136.113281 419.09375 113.328125 382.933594 102.503906 354.75 C 84.558594 307.773438 84.273438 228.050781 111.617188 186.199219 C 99.65625 222.074219 95.097656 267.058594 104.210938 307.203125 C 114.183594 351.617188 139.53125 382.648438 177.414062 397.171875 C 206.75 408.273438 232.386719 426.78125 251.753906 451.265625 C 251.753906 454.683594 251.753906 458.382812 251.46875 461.800781 C 231.246094 446.425781 207.890625 435.890625 183.394531 430.195312 Z M 233.242188 611.558594 C 244.347656 562.871094 253.75 516.179688 256.597656 473.1875 C 259.445312 475.464844 262.007812 478.027344 264.855469 480.589844 C 272.546875 529.277344 270.554688 585.078125 266.851562 644.296875 C 262.863281 702.378906 296.757812 758.753906 349.738281 787.507812 C 333.5 784.375 318.121094 778.683594 304.164062 769.855469 C 248.90625 736.542969 219.570312 671.347656 233.242188 611.558594 Z M 382.207031 794.625 C 385.910156 794.339844 389.898438 793.773438 393.601562 793.203125 C 397.875 792.347656 402.144531 791.210938 406.417969 790.070312 C 413.539062 793.769531 420.945312 796.902344 428.636719 799.464844 C 412.96875 800.605469 397.304688 799.179688 382.207031 794.625 Z M 454.269531 800.035156 C 455.980469 799.464844 457.6875 798.894531 459.398438 798.328125 C 462.246094 797.1875 465.09375 796.050781 467.65625 794.910156 C 476.488281 797.757812 485.316406 799.75 494.429688 800.890625 C 481.328125 802.882812 467.65625 802.3125 454.269531 800.035156 Z M 634.851562 714.050781 C 617.191406 761.03125 579.878906 790.355469 532.597656 795.765625 C 536.585938 793.773438 540.574219 791.777344 544.5625 789.5 C 564.785156 776.6875 581.304688 759.035156 592.699219 737.683594 C 620.894531 685.582031 661.058594 591.058594 686.976562 496.820312 C 688.96875 489.417969 690.964844 481.730469 692.957031 473.757812 C 692.957031 473.472656 693.242188 473.1875 693.242188 473.1875 C 679.285156 572.265625 652.511719 667.644531 634.851562 714.050781 Z M 634.851562 714.050781 " fill-opacity="1" fill-rule="nonzero"/></svg>