<svg xmlns="http://www.w3.org/2000/svg" xmlns:xlink="http://www.w3.org/1999/xlink" zoomAndPan="magnify" preserveAspectRatio="xMidYMid meet" version="1.0" viewBox="-15.51 -15.51 821.68 831.04"><defs><clipPath id="845c44aeb2"><path d="M 364 34 L 375.035156 34 L 375.035156 342 L 364 342 Z M 364 34 " clip-rule="nonzero"/></clipPath><clipPath id="effe012894"><path d="M 1.042969 34 L 12 34 L 12 342 L 1.042969 342 Z M 1.042969 34 " clip-rule="nonzero"/></clipPath><clipPath id="877fe21432"><path d="M 34 1.042969 L 342 1.042969 L 342 12 L 34 12 Z M 34 1.042969 " clip-rule="nonzero"/></clipPath><clipPath id="1e92a7abd1"><path d="M 34 364 L 342 364 L 342 375.035156 L 34 375.035156 Z M 34 364 " clip-rule="nonzero"/></clipPath><clipPath id="cac2eddfc2"><path d="M 341 1.042969 L 375.035156 1.042969 L 375.035156 35 L 341 35 Z M 341 1.042969 " clip-rule="nonzero"/></clipPath><clipPath id="a47c237b2b"><path d="M 1.042969 1.042969 L 35 1.042969 L 35 35 L 1.042969 35 Z M 1.042969 1.042969 " clip-rule="nonzero"/></clipPath><clipPath id="a3e9355d82"><path d="M 341 341 L 375.035156 341 L 375.035156 375.035156 L 341 375.035156 Z M 341 341 " clip-rule="nonzero"/></clipPath><clipPath id="94ea137fa9"><path d="M 1.042969 341 L 35 341 L 35 375.035156 L 1.042969 375.035156 Z M 1.042969 341 " clip-rule="nonzero"/></clipPath><clipPath id="2749672566"><path d="M 0 0 L 376.078125 0 L 376.078125 376.078125 L 0 376.078125 Z M 0 0 " clip-rule="nonzero"/></clipPath><clipPath id="3f6e201003"><path d="M 575 259 L 585.371094 259 L 585.371094 568 L 575 568 Z M 575 259 " clip-rule="nonzero"/></clipPath><clipPath id="f19929bd79"><path d="M 211.378906 259 L 222 259 L 222 568 L 211.378906 568 Z M 211.378906 259 " clip-rule="nonzero"/></clipPath><clipPath id="38811c51e5"><path d="M 244 226.503906 L 552 226.503906 L 552 237 L 244 237 Z M 244 226.503906 " clip-rule="nonzero"/></clipPath><clipPath id="59434048c5"><path d="M 244 590 L 552 590 L 552 600.492188 L 244 600.492188 Z M 244 590 " clip-rule="nonzero"/></clipPath><clipPath id="e48671d546"><path d="M 551 226.503906 L 585.371094 226.503906 L 585.371094 260 L 551 260 Z M 551 226.503906 " clip-rule="nonzero"/></clipPath><clipPath id="1b946fe201"><path d="M 211.378906 226.503906 L 245 226.503906 L 245 260 L 211.378906 260 Z M 211.378906 226.503906 " clip-rule="nonzero"/></clipPath><clipPath id="312cd6929a"><path d="M 551 567 L 585.371094 567 L 585.371094 600.492188 L 551 600.492188 Z M 551 567 " clip-rule="nonzero"/></clipPath><clipPath id="52fbcb07a2"><path d="M 211.378906 567 L 245 567 L 245 600.492188 L 211.378906 600.492188 Z M 211.378906 567 " clip-rule="nonzero"/></clipPath><clipPath id="df21263df2"><path d="M 210.335938 225.460938 L 586.414062 225.460938 L 586.414062 601.539062 L 210.335938 601.539062 Z M 210.335938 225.460938 " clip-rule="nonzero"/></clipPath><clipPath id="402a47fda6"><path d="M 779 458 L 789.625 458 L 789.625 766 L 779 766 Z M 779 458 " clip-rule="nonzero"/></clipPath><clipPath id="5b9ba9a0cf"><path d="M 415.636719 458 L 426 458 L 426 766 L 415.636719 766 Z M 415.636719 458 " clip-rule="nonzero"/></clipPath><clipPath id="fa95be0b19"><path d="M 449 424.992188 L 757 424.992188 L 757 436 L 449 436 Z M 449 424.992188 " clip-rule="nonzero"/></clipPath><clipPath id="8d57e45b78"><path d="M 449 788 L 757 788 L 757 798.980469 L 449 798.980469 Z M 449 788 " clip-rule="nonzero"/></clipPath><clipPath id="c855505bde"><path d="M 756 424.992188 L 789.625 424.992188 L 789.625 459 L 756 459 Z M 756 424.992188 " clip-rule="nonzero"/></clipPath><clipPath id="1a00acb2f4"><path d="M 415.636719 424.992188 L 450 424.992188 L 450 459 L 415.636719 459 Z M 415.636719 424.992188 " clip-rule="nonzero"/></clipPath><clipPath id="27e63de995"><path d="M 756 765 L 789.625 765 L 789.625 798.980469 L 756 798.980469 Z M 756 765 " clip-rule="nonzero"/></clipPath><clipPath id="a982c6c995"><path d="M 415.636719 765 L 450 765 L 450 798.980469 L 415.636719 798.980469 Z M 415.636719 765 " clip-rule="nonzero"/></clipPath><clipPath id="5a26a34086"><path d="M 414.589844 423.945312 L 790.667969 423.945312 L 790.667969 800.023438 L 414.589844 800.023438 Z M 414.589844 423.945312 " clip-rule="nonzero"/></clipPath></defs><g clip-path="url(#845c44aeb2)"><path fill="#ffffff" d="M 364.839844 34.460938 L 376.078125 34.460938 L 376.078125 341.617188 L 364.839844 341.617188 Z M 364.839844 34.460938 " fill-opacity="1" fill-rule="nonzero"/></g><g clip-path="url(#effe012894)"><path fill="#ffffff" d="M 0 34.460938 L 11.238281 34.460938 L 11.238281 341.617188 L 0 341.617188 Z M 0 34.460938 " fill-opacity="1" fill-rule="nonzero"/></g><g clip-path="url(#877fe21432)"><path fill="#ffffff" d="M 34.460938 0 L 341.617188 0 L 341.617188 11.238281 L 34.460938 11.238281 Z M 34.460938 0 " fill-opacity="1" fill-rule="nonzero"/></g><g clip-path="url(#1e92a7abd1)"><path fill="#ffffff" d="M 34.460938 364.839844 L 341.617188 364.839844 L 341.617188 376.078125 L 34.460938 376.078125 Z M 34.460938 364.839844 " fill-opacity="1" fill-rule="nonzero"/></g><g clip-path="url(#cac2eddfc2)"><path fill="#ffffff" d="M 364.839844 11.238281 L 364.839844 34.460938 L 376.078125 34.460938 L 376.078125 0 L 341.617188 0 L 341.617188 11.238281 Z M 364.839844 11.238281 " fill-opacity="1" fill-rule="nonzero"/></g><g clip-path="url(#a47c237b2b)"><path fill="#ffffff" d="M 11.238281 11.238281 L 34.460938 11.238281 L 34.460938 0 L 0 0 L 0 34.460938 L 11.238281 34.460938 Z M 11.238281 11.238281 " fill-opacity="1" fill-rule="nonzero"/></g><g clip-path="url(#a3e9355d82)"><path fill="#ffffff" d="M 364.839844 364.839844 L 341.617188 364.839844 L 341.617188 376.078125 L 376.078125 376.078125 L 376.078125 341.617188 L 364.839844 341.617188 Z M 364.839844 364.839844 " fill-opacity="1" fill-rule="nonzero"/></g><g clip-path="url(#94ea137fa9)"><path fill="#ffffff" d="M 11.238281 364.839844 L 11.238281 341.617188 L 0 341.617188 L 0 376.078125 L 34.460938 376.078125 L 34.460938 364.839844 Z M 11.238281 364.839844 " fill-opacity="1" fill-rule="nonzero"/></g><g clip-path="url(#2749672566)"><path stroke-linecap="butt" transform="matrix(0.870552, 0, 0, 0.870552, 0.0000035, 0.00002)" fill="none" stroke-linejoin="miter" d="M -0.00000402044 -0.0000229739 L -0.00000402044 431.999717 L 431.999735 431.999717 L 431.999735 -0.0000229739 L -0.00000402044 -0.0000229739 " stroke="#000000" stroke-width="31.014812" stroke-opacity="1" stroke-miterlimit="4"/></g><g clip-path="url(#3f6e201003)"><path fill="#ffffff" d="M 575.175781 259.921875 L 586.414062 259.921875 L 586.414062 567.078125 L 575.175781 567.078125 Z M 575.175781 259.921875 " fill-opacity="1" fill-rule="nonzero"/></g><g clip-path="url(#f19929bd79)"><path fill="#ffffff" d="M 210.335938 259.921875 L 221.574219 259.921875 L 221.574219 567.078125 L 210.335938 567.078125 Z M 210.335938 259.921875 " fill-opacity="1" fill-rule="nonzero"/></g><g clip-path="url(#38811c51e5)"><path fill="#ffffff" d="M 244.796875 225.460938 L 551.953125 225.460938 L 551.953125 236.699219 L 244.796875 236.699219 Z M 244.796875 225.460938 " fill-opacity="1" fill-rule="nonzero"/></g><g clip-path="url(#59434048c5)"><path fill="#ffffff" d="M 244.796875 590.300781 L 551.953125 590.300781 L 551.953125 601.539062 L 244.796875 601.539062 Z M 244.796875 590.300781 " fill-opacity="1" fill-rule="nonzero"/></g><g clip-path="url(#e48671d546)"><path fill="#ffffff" d="M 575.175781 236.699219 L 575.175781 259.921875 L 586.414062 259.921875 L 586.414062 225.460938 L 551.953125 225.460938 L 551.953125 236.699219 Z M 575.175781 236.699219 " fill-opacity="1" fill-rule="nonzero"/></g><g clip-path="url(#1b946fe201)"><path fill="#ffffff" d="M 221.574219 236.699219 L 244.796875 236.699219 L 244.796875 225.460938 L 210.335938 225.460938 L 210.335938 259.921875 L 221.574219 259.921875 Z M 221.574219 236.699219 " fill-opacity="1" fill-rule="nonzero"/></g><g clip-path="url(#312cd6929a)"><path fill="#ffffff" d="M 575.175781 590.300781 L 551.953125 590.300781 L 551.953125 601.539062 L 586.414062 601.539062 L 586.414062 567.078125 L 575.175781 567.078125 Z M 575.175781 590.300781 " fill-opacity="1" fill-rule="nonzero"/></g><g clip-path="url(#52fbcb07a2)"><path fill="#ffffff" d="M 221.574219 590.300781 L 221.574219 567.078125 L 210.335938 567.078125 L 210.335938 601.539062 L 244.796875 601.539062 L 244.796875 590.300781 Z M 221.574219 590.300781 " fill-opacity="1" fill-rule="nonzero"/></g><g clip-path="url(#df21263df2)"><path stroke-linecap="butt" transform="matrix(0.870552, 0, 0, 0.870552, 210.335691, 225.459925)" fill="none" stroke-linejoin="miter" d="M 0.000283707 0.00116253 L 0.000283707 432.000902 L 432.000023 432.000902 L 432.000023 0.00116253 L 0.000283707 0.00116253 " stroke="#000000" stroke-width="31.014812" stroke-opacity="1" stroke-miterlimit="4"/></g><g clip-path="url(#402a47fda6)"><path fill="#ffffff" d="M 779.429688 458.40625 L 790.667969 458.40625 L 790.667969 765.5625 L 779.429688 765.5625 Z M 779.429688 458.40625 " fill-opacity="1" fill-rule="nonzero"/></g><g clip-path="url(#5b9ba9a0cf)"><path fill="#ffffff" d="M 414.589844 458.40625 L 425.828125 458.40625 L 425.828125 765.5625 L 414.589844 765.5625 Z M 414.589844 458.40625 " fill-opacity="1" fill-rule="nonzero"/></g><g clip-path="url(#fa95be0b19)"><path fill="#ffffff" d="M 449.050781 423.945312 L 756.207031 423.945312 L 756.207031 435.183594 L 449.050781 435.183594 Z M 449.050781 423.945312 " fill-opacity="1" fill-rule="nonzero"/></g><g clip-path="url(#8d57e45b78)"><path fill="#ffffff" d="M 449.050781 788.785156 L 756.207031 788.785156 L 756.207031 800.023438 L 449.050781 800.023438 Z M 449.050781 788.785156 " fill-opacity="1" fill-rule="nonzero"/></g><g clip-path="url(#c855505bde)"><path fill="#ffffff" d="M 779.429688 435.183594 L 779.429688 458.40625 L 790.667969 458.40625 L 790.667969 423.945312 L 756.207031 423.945312 L 756.207031 435.183594 Z M 779.429688 435.183594 " fill-opacity="1" fill-rule="nonzero"/></g><g clip-path="url(#1a00acb2f4)"><path fill="#ffffff" d="M 425.828125 435.183594 L 449.050781 435.183594 L 449.050781 423.945312 L 414.589844 423.945312 L 414.589844 458.40625 L 425.828125 458.40625 Z M 425.828125 435.183594 " fill-opacity="1" fill-rule="nonzero"/></g><g clip-path="url(#27e63de995)"><path fill="#ffffff" d="M 779.429688 788.785156 L 756.207031 788.785156 L 756.207031 800.023438 L 790.667969 800.023438 L 790.667969 765.5625 L 779.429688 765.5625 Z M 779.429688 788.785156 " fill-opacity="1" fill-rule="nonzero"/></g><g clip-path="url(#a982c6c995)"><path fill="#ffffff" d="M 425.828125 788.785156 L 425.828125 765.5625 L 414.589844 765.5625 L 414.589844 800.023438 L 449.050781 800.023438 L 449.050781 788.785156 Z M 425.828125 788.785156 " fill-opacity="1" fill-rule="nonzero"/></g><g clip-path="url(#5a26a34086)"><path stroke-linecap="butt" transform="matrix(0.870552, 0, 0, 0.870552, 414.590551, 423.945743)" fill="none" stroke-linejoin="miter" d="M -0.000812005 -0.000494137 L -0.000812005 431.999245 L 431.998928 431.999245 L 431.998928 -0.000494137 L -0.000812005 -0.000494137 " stroke="#000000" stroke-width="31.014812" stroke-opacity="1" stroke-miterlimit="4"/></g></svg>