<svg xmlns="http://www.w3.org/2000/svg" xmlns:xlink="http://www.w3.org/1999/xlink" zoomAndPan="magnify" preserveAspectRatio="xMidYMid meet" version="1.0" viewBox="0 76.46 810 510.46"><defs><clipPath id="c10d4f1fb4"><path d="M 195.09375 76.460938 L 615 76.460938 L 615 440.210938 L 195.09375 440.210938 Z M 195.09375 76.460938 " clip-rule="nonzero"/></clipPath><clipPath id="24b896c52a"><path d="M 0 223.167969 L 420 223.167969 L 420 586.917969 L 0 586.917969 Z M 0 223.167969 " clip-rule="nonzero"/></clipPath><clipPath id="1edda75881"><path d="M 390.183594 223.167969 L 810 223.167969 L 810 586.917969 L 390.183594 586.917969 Z M 390.183594 223.167969 " clip-rule="nonzero"/></clipPath></defs><g clip-path="url(#c10d4f1fb4)"><path fill="#231f20" d="M 614.90625 440.070312 L 195.09375 440.070312 L 405 76.511719 Z M 214.488281 428.902344 L 595.507812 428.902344 L 405 98.929688 Z M 214.488281 428.902344 " fill-opacity="1" fill-rule="nonzero"/></g><g clip-path="url(#24b896c52a)"><path fill="#231f20" d="M 419.8125 586.773438 L 0 586.773438 L 209.90625 223.21875 Z M 19.394531 575.609375 L 400.417969 575.609375 L 209.90625 245.636719 Z M 19.394531 575.609375 " fill-opacity="1" fill-rule="nonzero"/></g><g clip-path="url(#1edda75881)"><path fill="#231f20" d="M 809.996094 586.773438 L 390.183594 586.773438 L 600.089844 223.21875 Z M 409.578125 575.609375 L 790.601562 575.609375 L 600.089844 245.636719 Z M 409.578125 575.609375 " fill-opacity="1" fill-rule="nonzero"/></g></svg>